<?xml version="1.0" standalone="no"?>
<!DOCTYPE svg PUBLIC "-//W3C//DTD SVG 20010904//EN"
 "http://www.w3.org/TR/2001/REC-SVG-20010904/DTD/svg10.dtd">
<svg version="1.0" xmlns="http://www.w3.org/2000/svg"
 width="229.000000pt" height="165.000000pt" viewBox="0 0 229.000000 165.000000"
 preserveAspectRatio="xMidYMid meet">
<metadata>
Created by potrace 1.10, written by Peter Selinger 2001-2011
</metadata>
<g transform="translate(0.000000,165.000000) scale(0.100000,-0.100000)"
fill="#000000" stroke="none">
<path d="M13 1635 c-10 -11 -13 -90 -13 -323 0 -263 2 -311 15 -322 13 -11 15
24 15 309 l0 321 928 0 929 0 10 -46 c10 -42 8 -57 -22 -149 -29 -87 -51 -142
-139 -338 -11 -23 -11 -38 0 -80 12 -47 38 -190 39 -211 0 -9 -41 -24 -142
-51 -35 -10 -60 -21 -57 -26 3 -5 -1 -6 -9 -4 -7 3 -24 2 -37 -3 -19 -7 -28
-5 -41 12 -23 28 -36 14 -15 -16 17 -25 22 -53 7 -43 -8 5 -32 -26 -35 -45 -1
-3 -5 -4 -10 -2 -4 1 -15 -3 -23 -9 -11 -10 -14 -10 -11 2 2 8 -5 14 -17 14
-11 0 -19 -6 -17 -13 3 -18 -30 -11 -36 7 -3 8 0 11 7 7 6 -4 11 -2 11 3 0 12
-1 12 -45 16 -16 2 -32 4 -35 5 -3 1 -8 2 -13 1 -4 0 -7 6 -7 15 0 8 -5 12
-10 9 -8 -5 -7 -11 1 -21 6 -7 15 -11 20 -8 5 3 9 0 9 -6 0 -7 7 -10 15 -7 14
6 28 -7 31 -30 3 -19 -13 -16 -26 4 -11 17 -11 17 -6 0 6 -18 -18 -25 -29 -7
-3 5 -12 7 -20 4 -18 -7 -75 32 -75 52 0 8 -7 14 -16 14 -8 0 -12 5 -9 10 3 6
1 10 -4 10 -20 0 -11 -25 19 -54 17 -16 30 -34 30 -40 0 -6 -5 -5 -12 2 -7 7
-21 12 -32 12 -11 0 -29 8 -40 17 -20 17 -20 17 -6 -1 13 -18 13 -19 0 -11 -8
4 -24 15 -34 24 -14 12 -20 13 -23 3 -5 -13 -23 -7 -23 9 0 6 5 7 10 4 6 -3
10 -1 10 4 0 6 -7 11 -15 11 -8 0 -15 5 -15 10 0 6 -7 10 -16 10 -14 0 -14 -1
0 -16 20 -19 20 -20 -1 -28 -10 -4 -14 -4 -10 0 8 9 -42 36 -53 29 -5 -3 -13
3 -19 12 -5 10 -13 14 -17 10 -24 -24 32 -53 181 -96 59 -17 220 -39 223 -31
2 4 20 4 40 -1 31 -7 70 -6 80 1 1 2 5 3 10 4 30 8 92 40 92 47 0 5 7 9 16 9
9 0 13 -5 9 -12 -4 -7 1 -4 10 7 15 19 15 20 -12 25 l-28 6 33 7 c17 3 35 7
40 8 4 1 17 12 29 25 15 16 38 26 70 31 26 3 60 12 76 20 25 12 29 11 26 -14
0 -5 -7 -7 -16 -5 -8 2 -12 -1 -8 -7 3 -6 0 -9 -7 -6 -7 3 -57 -24 -110 -58
-86 -56 -132 -90 -103 -75 6 2 37 17 70 33 33 16 99 50 148 77 l87 49 30 -24
c16 -14 48 -28 71 -32 l41 -7 -6 -52 c-13 -95 -11 -93 -79 -100 -34 -4 -83 -9
-109 -13 l-47 -5 14 -29 c18 -34 19 -83 3 -97 -51 -41 -321 -152 -371 -152
-22 0 -202 -61 -212 -72 -7 -7 -1 -8 20 -3 17 4 37 9 45 10 8 2 15 4 15 6 0 1
9 3 20 5 11 2 37 7 58 13 21 5 49 8 63 6 13 -1 24 2 24 8 0 6 3 7 6 4 4 -3 15
-2 25 4 15 7 17 6 13 -6 -5 -12 -1 -13 25 -4 32 11 44 32 14 23 -10 -3 7 7 37
21 30 14 64 27 75 28 11 1 29 10 39 19 11 10 26 18 33 18 7 0 30 16 50 35 29
27 39 32 51 23 10 -9 15 -9 22 1 11 18 1 51 -16 51 -8 0 -14 4 -14 9 0 18 18
21 44 10 27 -12 36 -52 16 -64 -6 -4 -8 -10 -5 -14 2 -5 -10 -8 -28 -8 -21 1
-31 -4 -29 -12 1 -7 -1 -10 -6 -7 -4 2 -14 0 -22 -5 -11 -7 0 -8 34 -4 58 8
93 30 103 65 3 13 19 38 34 54 15 17 34 41 41 55 7 15 17 29 23 34 20 15 93
-6 198 -59 66 -34 107 -50 107 -42 0 18 -183 109 -231 115 -21 3 -43 11 -48
17 -14 16 16 74 48 94 14 9 35 25 45 34 24 22 27 22 52 3 27 -21 46 -18 77 10
21 20 27 35 27 67 0 34 -6 46 -37 75 -21 21 -32 37 -26 41 6 4 17 23 25 42 13
31 13 42 1 85 -8 28 -16 62 -16 77 -1 14 -5 24 -8 22 -9 -5 -19 22 -19 52 0
23 22 91 41 127 5 10 7 22 3 28 -7 12 23 77 45 99 10 9 11 11 2 5 -12 -8 -13
-6 -7 10 25 60 10 125 -43 183 l-28 32 -117 0 c-66 0 -126 -5 -138 -11 -14 -8
-23 -8 -31 0 -8 8 -283 11 -946 11 -796 -1 -938 -3 -948 -15z m2205 -68 c17
-28 32 -62 32 -75 0 -12 -18 -51 -40 -86 -44 -69 -47 -78 -26 -70 24 9 29 -16
8 -39 -20 -22 -52 -104 -52 -135 0 -19 31 -105 40 -112 4 -3 10 -29 13 -57 7
-61 -7 -83 -53 -83 -26 0 -28 3 -27 33 1 17 -3 32 -8 32 -6 0 -9 -8 -9 -17 2
-27 -13 -21 -20 7 -7 27 15 60 29 47 5 -4 5 -1 1 6 -4 7 -1 12 9 12 9 0 13 5
10 11 -5 7 -15 5 -31 -6 -22 -14 -24 -14 -24 3 0 10 -6 27 -14 37 -14 20 -11
45 6 45 5 0 8 -8 6 -17 -2 -11 5 -19 16 -21 19 -4 19 -3 3 19 -10 13 -25 40
-34 59 -10 19 -26 47 -36 62 -10 16 -16 31 -14 35 7 12 -11 53 -22 53 -5 0 -7
-10 -4 -22 2 -13 5 -33 4 -45 0 -13 4 -23 9 -23 6 0 10 -8 10 -17 0 -10 7 -27
15 -37 8 -11 15 -28 15 -38 0 -17 -2 -17 -29 -3 -17 8 -37 25 -45 37 l-16 22
0 -27 c0 -18 -5 -27 -16 -27 -19 0 -77 -57 -65 -64 4 -3 36 4 71 15 34 12 65
18 70 13 5 -5 19 -34 33 -65 l24 -55 -28 -35 c-16 -19 -29 -28 -29 -21 0 14
-26 16 -35 3 -3 -6 3 -15 13 -20 14 -7 25 -6 43 7 13 9 30 17 37 18 13 2 92
-73 92 -88 0 -5 6 -8 13 -6 25 4 57 -14 63 -38 14 -54 -19 -101 -51 -74 -17
14 -21 35 -5 25 6 -3 13 1 16 10 5 11 -3 26 -21 43 -27 27 -27 27 -15 3 13
-26 14 -25 -41 -61 -13 -8 -33 -25 -46 -37 -25 -24 -63 -31 -63 -13 0 13 -83
50 -111 50 -30 0 -22 20 12 27 18 3 28 11 25 18 -5 15 3 27 28 41 11 6 22 16
24 22 2 7 -20 -4 -49 -23 -30 -19 -57 -35 -61 -35 -5 0 -8 -6 -8 -14 0 -8 -8
-14 -17 -14 -10 0 -26 -3 -35 -7 -12 -5 -20 -2 -24 10 -8 21 11 35 49 35 34 0
36 17 2 26 -27 7 -40 37 -50 119 -3 28 -8 64 -11 80 -8 51 -5 76 15 111 21 40
75 160 76 169 1 12 21 60 37 92 6 12 15 20 19 17 5 -3 6 2 3 10 -3 9 4 27 15
42 26 33 27 61 4 67 -14 4 -12 5 5 6 23 1 27 8 13 29 -6 11 -11 10 -25 -3 -18
-18 -21 -8 -10 33 6 21 10 22 133 22 l126 -1 33 -52z m-299 -1100 c-15 -32
-40 -43 -51 -22 -5 8 -16 15 -23 15 -8 0 -15 4 -15 10 0 12 45 24 65 17 8 -4
17 -2 21 4 12 20 15 1 3 -24z"/>
<path d="M1900 911 c0 -5 7 -14 15 -21 8 -7 15 -19 15 -26 0 -19 11 -17 40 7
25 20 25 20 1 9 -19 -10 -25 -9 -32 1 -5 8 -9 17 -9 20 0 10 -30 20 -30 10z"/>
<path d="M2004 875 c-8 -19 3 -35 20 -29 7 3 25 0 41 -6 42 -16 40 -6 -5 24
-46 30 -49 31 -56 11z"/>
<path d="M1970 821 c0 -6 9 -11 20 -11 22 0 26 -20 8 -38 -9 -9 -9 -12 2 -12
7 0 21 -7 30 -15 15 -14 16 -12 13 18 -3 19 -1 27 4 20 10 -14 30 -4 35 17 2
10 -7 15 -32 16 -19 1 -45 5 -57 9 -15 5 -23 3 -23 -4z"/>
<path d="M518 1490 c-76 -13 -161 -72 -143 -100 3 -4 -5 -10 -17 -14 -17 -4
-20 -8 -11 -17 8 -8 22 1 54 36 72 78 139 100 178 59 14 -15 17 -22 8 -18 -12
4 -15 1 -12 -15 4 -24 1 -25 -27 -10 -28 15 -63 4 -83 -28 l-18 -28 25 23 c25
23 53 29 62 13 3 -5 -2 -15 -11 -22 -14 -12 -16 -12 -8 1 8 13 7 13 -8 1 -18
-14 -22 -22 -9 -19 4 0 15 -2 24 -6 11 -5 25 0 40 14 13 12 38 30 56 41 48 30
41 59 -21 87 -15 6 -29 11 -30 11 -1 -1 -23 -5 -49 -9z"/>
<path d="M372 1460 c-85 -39 -201 -185 -286 -361 -25 -52 -41 -96 -36 -97 6
-2 7 -9 4 -14 -4 -7 -2 -8 5 -4 6 4 9 11 6 16 -3 4 2 13 10 20 8 7 15 17 15
23 0 6 10 22 23 35 12 14 16 22 9 18 -21 -12 -13 9 12 33 14 13 23 28 20 35
-2 6 3 20 12 31 8 11 13 13 9 5 -3 -8 2 -4 12 10 10 14 28 35 39 47 13 13 18
26 13 32 -5 6 -6 9 -2 6 3 -3 18 5 31 17 21 19 24 20 19 5 -4 -11 -3 -16 4
-12 6 4 8 13 5 20 -2 7 11 28 30 46 35 34 47 62 17 38 -16 -13 -17 -12 -4 4 8
9 16 15 18 13 3 -2 12 2 21 10 10 7 26 20 37 28 28 21 8 19 -43 -4z"/>
<path d="M940 1411 c0 -15 51 -83 57 -77 7 6 -23 60 -41 75 -12 10 -16 10 -16
2z"/>
<path d="M1148 1340 c-48 -10 -92 -21 -97 -25 -6 -3 -11 1 -11 9 0 9 -4 16
-10 16 -14 0 -13 -18 3 -34 10 -12 16 -12 39 0 36 19 88 25 88 10 0 -6 5 -4
10 4 9 13 11 13 20 0 6 -10 10 -11 10 -2 0 6 4 12 9 12 11 0 -6 -58 -20 -74
-5 -6 -9 -25 -9 -43 0 -26 6 -36 32 -49 24 -12 36 -14 49 -6 9 6 27 8 40 4 19
-6 24 -14 24 -39 0 -18 -3 -33 -8 -33 -4 0 -6 -4 -3 -9 3 -5 15 -7 26 -4 20 5
38 62 26 81 -3 5 1 18 9 28 14 18 16 18 26 2 5 -10 15 -18 21 -18 6 0 1 11
-11 24 -17 18 -19 25 -9 29 19 7 -32 25 -54 19 -10 -2 -18 -8 -18 -13 0 -5 -7
-9 -15 -9 -13 0 -19 -12 -16 -32 0 -4 -6 -5 -14 -2 -8 4 -15 1 -15 -6 0 -6
-10 -10 -22 -8 -19 2 -23 10 -24 38 0 19 3 40 8 47 6 7 7 17 3 22 -3 6 1 24
10 40 25 49 30 47 -97 21z"/>
<path d="M436 1318 c-19 -27 -12 -37 11 -16 26 22 49 12 28 -12 -9 -10 -23
-16 -31 -13 -8 3 -14 1 -14 -4 0 -5 -10 -21 -22 -36 -12 -15 -23 -33 -24 -40
-1 -6 -5 -20 -9 -30 -12 -29 17 -16 40 18 11 16 20 34 20 40 0 5 14 9 30 8 22
-2 26 0 15 7 -9 6 -10 10 -3 10 12 0 43 54 43 77 0 23 -67 16 -84 -9z"/>
<path d="M852 1292 c-49 -57 -64 -82 -58 -97 3 -8 0 -15 -6 -15 -7 0 -7 -4 -1
-12 6 -7 10 -26 9 -41 -1 -16 1 -30 5 -33 4 -2 5 -14 3 -27 -3 -14 1 -11 11
10 8 18 13 46 11 63 -2 17 0 33 5 36 5 3 9 14 9 24 0 10 18 37 40 60 22 23 40
48 40 56 0 26 -35 14 -68 -24z"/>
<path d="M313 1263 c-30 -42 -17 -57 17 -20 26 29 30 47 11 47 -4 0 -16 -12
-28 -27z"/>
<path d="M1050 1240 c0 -5 -7 -10 -15 -10 -8 0 -23 -9 -34 -21 -13 -14 -26
-19 -39 -15 -24 8 -32 -2 -22 -28 4 -14 9 -16 14 -8 4 7 12 12 18 12 6 0 1
-11 -12 -25 -27 -28 -39 -106 -13 -80 7 8 13 24 13 37 0 18 31 77 57 108 3 3
13 -6 24 -20 16 -21 20 -23 28 -10 8 11 4 18 -12 27 -22 11 -22 11 6 19 21 5
25 9 15 15 -18 12 -28 11 -28 -1z"/>
<path d="M917 1213 c-4 -3 -6 -29 -6 -57 l2 -51 7 55 c7 59 7 64 -3 53z"/>
<path d="M350 1148 c-7 -23 -20 -61 -30 -83 -11 -25 -18 -65 -18 -105 0 -36 2
-54 5 -40 3 14 9 29 14 35 13 13 11 27 -3 19 -6 -4 -2 8 10 28 22 36 31 66 11
38 -8 -12 -9 -9 -4 10 24 92 33 135 30 138 -2 2 -9 -16 -15 -40z"/>
<path d="M1392 1110 c-13 -31 -27 -50 -37 -50 -9 0 -14 -4 -10 -10 3 -5 12 -7
20 -3 9 3 15 -1 15 -11 0 -9 7 -16 15 -16 8 0 23 -9 32 -20 10 -11 21 -20 26
-20 12 0 -12 42 -37 63 -19 17 -19 18 -2 13 19 -7 19 -6 1 14 -10 11 -14 20
-9 20 9 0 44 51 44 64 0 3 -8 6 -19 6 -13 0 -25 -15 -39 -50z"/>
<path d="M1480 1137 c0 -20 52 -65 57 -49 3 6 12 12 21 12 15 0 15 -2 2 -11
-12 -8 -9 -9 12 -5 17 4 32 1 42 -9 8 -8 20 -15 26 -15 6 0 8 -4 5 -10 -3 -5
1 -10 9 -10 9 0 16 5 16 11 0 7 9 9 22 6 20 -6 20 -5 -5 20 -14 14 -34 27 -44
28 -10 1 -25 4 -33 7 -16 6 -71 22 -107 33 -16 4 -23 2 -23 -8z"/>
<path d="M1022 1069 c-27 -24 -27 -29 -2 -29 14 0 18 5 13 17 -5 12 -2 15 10
10 9 -3 17 -2 17 3 0 19 -18 19 -38 -1z"/>
<path d="M1641 1015 c9 -11 15 -30 14 -42 -1 -12 2 -20 6 -17 11 6 50 -47 43
-58 -4 -6 -1 -14 5 -18 9 -5 9 -11 -3 -22 -8 -9 -12 -18 -9 -22 10 -10 -6 -7
-28 5 -11 5 -17 14 -14 18 3 5 -2 11 -10 15 -18 6 -20 -5 -3 -22 8 -8 8 -15
-1 -26 -9 -11 -9 -16 0 -22 7 -4 9 -3 6 3 -4 6 2 13 13 16 24 6 36 -8 14 -17
-8 -3 -13 -10 -9 -15 3 -6 -7 -6 -27 0 -46 13 -56 11 -33 -7 19 -16 19 -16 -7
-12 -16 3 -28 1 -28 -4 0 -5 -5 -6 -12 -2 -7 4 -8 3 -4 -4 5 -8 0 -12 -13 -12
-11 0 -23 5 -26 10 -4 6 -11 8 -16 4 -6 -4 -6 -10 0 -18 6 -7 8 -15 5 -19 -3
-3 30 5 73 18 43 13 89 26 103 29 31 7 59 67 55 116 -2 19 -5 46 -6 60 -1 17
-3 20 -6 8 -6 -24 -30 -23 -43 1 -14 27 -13 31 8 24 15 -6 15 -5 3 10 -7 9
-18 14 -24 10 -6 -3 -7 -1 -3 6 4 6 12 9 17 6 5 -4 9 -1 9 4 0 6 -7 11 -15 11
-8 0 -15 -5 -15 -11 0 -8 -6 -7 -17 2 -17 13 -17 12 -2 -6z"/>
<path d="M1544 1012 c4 -7 13 -12 20 -12 8 0 20 -7 27 -16 12 -15 11 -16 -9
-10 -21 7 -27 -1 -23 -26 0 -5 -4 -8 -10 -8 -6 0 -9 7 -6 15 4 8 2 17 -3 20
-6 4 -10 2 -10 -3 0 -5 -14 -8 -31 -6 -20 3 -28 0 -23 -7 4 -8 -1 -9 -17 -4
-13 4 -21 4 -17 0 11 -11 58 -15 58 -4 0 5 23 -7 50 -26 50 -35 64 -37 35 -5
-14 16 -14 17 10 15 20 -3 23 0 16 13 -4 10 -7 22 -4 28 2 6 -9 17 -24 24 -16
8 -32 16 -37 19 -5 2 -6 -1 -2 -7z"/>
<path d="M202 998 c-15 -19 -52 -96 -52 -108 0 -27 17 -4 42 55 27 65 29 76
10 53z"/>
<path d="M235 990 c-4 -11 -8 -43 -10 -72 -2 -28 -9 -56 -15 -62 -13 -13 -13
-39 1 -31 17 11 28 51 34 120 5 66 1 81 -10 45z"/>
<path d="M450 1002 c0 -9 36 -44 58 -56 22 -13 13 0 -23 33 -19 17 -35 28 -35
23z"/>
<path d="M570 935 c0 -10 5 -13 12 -9 6 4 21 -5 35 -22 12 -16 23 -24 23 -18
0 6 -10 20 -22 31 -36 31 -48 36 -48 18z"/>
<path d="M1473 913 c23 -26 22 -32 -8 -28 -24 2 -25 1 -9 -16 18 -20 29 -25
20 -10 -4 5 3 7 13 4 15 -4 19 0 16 14 -2 10 -4 21 -4 25 -1 4 -11 13 -23 19
-22 12 -22 11 -5 -8z"/>
<path d="M1518 917 c8 -9 11 -24 8 -35 -6 -19 37 -71 47 -55 5 9 -12 28 -28
30 -17 2 -18 23 -1 23 24 0 19 16 -11 36 -23 14 -26 15 -15 1z"/>
<path d="M1377 880 c-3 -14 -6 -38 -5 -55 1 -48 -1 -57 -12 -50 -5 3 -10 -3
-10 -15 0 -37 31 5 35 46 1 20 9 40 16 45 9 6 10 9 2 9 -6 0 -13 10 -16 23 -3
22 -4 21 -10 -3z"/>
<path d="M1454 813 c1 -22 -3 -27 -19 -25 -20 3 -20 2 -1 -13 11 -8 27 -15 35
-15 10 0 12 3 6 8 -6 4 -12 17 -12 29 -2 25 17 25 47 -2 11 -10 20 -13 20 -7
0 14 -41 43 -52 36 -4 -3 -8 0 -8 5 0 6 -4 11 -9 11 -4 0 -8 -12 -7 -27z"/>
<path d="M46 758 c-10 -15 -16 -35 -14 -45 3 -14 8 -11 22 15 22 42 16 66 -8
30z"/>
<path d="M793 768 c1 -7 -4 -12 -10 -10 -7 1 -13 -3 -13 -9 0 -5 -4 -8 -9 -5
-5 3 -11 -1 -15 -9 -7 -20 0 -19 34 5 18 13 35 17 47 13 17 -6 17 -6 1 10 -19
20 -39 22 -35 5z"/>
<path d="M1087 753 c4 -10 2 -14 -4 -10 -6 4 -19 4 -28 1 -13 -5 -14 -8 -3
-15 10 -7 8 -9 -7 -9 -19 -1 -19 -1 -2 -11 21 -12 67 -4 67 12 0 6 -7 6 -20
-1 -11 -6 -20 -7 -20 -2 0 12 42 24 50 14 8 -11 49 -32 62 -32 7 0 1 8 -12 17
-14 9 -28 22 -32 27 -4 6 -8 7 -8 2 0 -4 -11 -1 -25 8 -23 15 -24 15 -18 -1z"/>
<path d="M762 708 c-17 -17 -15 -24 9 -25 12 -1 19 1 15 4 -3 3 -1 12 5 20 15
17 -12 18 -29 1z"/>
<path d="M1354 700 c3 -8 9 -23 12 -33 4 -11 13 -16 22 -12 8 3 21 0 28 -6 10
-8 14 -8 14 -1 0 13 -40 37 -40 25 -1 -4 -10 3 -22 17 -11 14 -18 18 -14 10z"/>
<path d="M707 573 c-4 -3 -17 -7 -29 -8 -25 -2 -56 -38 -63 -74 -2 -13 2 -39
10 -59 9 -19 13 -37 10 -40 -6 -6 84 -52 102 -52 6 0 21 -12 33 -27 l21 -27
-5 27 c-4 22 -1 27 15 27 11 0 17 5 14 10 -4 6 9 11 32 12 57 2 61 3 70 12 4
5 -27 5 -72 1 -44 -5 -89 -8 -99 -7 -24 1 -63 29 -89 64 -17 23 -17 28 -4 60
8 19 30 47 48 61 19 15 29 27 23 27 -6 0 -14 -3 -17 -7z"/>
<path d="M840 559 c0 -12 8 -23 20 -26 15 -4 18 -11 13 -37 -3 -17 -9 -35 -13
-40 -10 -10 -33 31 -25 44 9 14 -37 40 -72 40 -18 0 -33 -4 -33 -10 0 -5 4
-10 9 -10 5 0 12 -8 14 -17 4 -15 6 -15 12 5 4 12 11 22 15 22 5 0 12 -10 16
-22 4 -13 12 -26 18 -30 6 -4 11 -13 11 -20 0 -17 52 -23 71 -7 8 6 14 19 14
29 0 10 11 25 25 34 31 21 23 39 -14 31 -19 -4 -33 0 -48 15 -28 25 -33 25
-33 -1z"/>
<path d="M1040 504 c0 -15 -11 -42 -26 -61 -14 -18 -21 -33 -15 -33 6 0 14 7
19 16 5 9 12 15 15 15 32 -4 37 -1 25 19 -10 16 -10 22 5 32 16 12 16 14 -3
26 -18 11 -20 10 -20 -14z"/>
<path d="M57 473 c-3 -19 0 -33 11 -44 10 -10 32 -35 51 -58 18 -22 38 -38 43
-35 5 3 5 11 -1 18 -6 7 -9 15 -6 18 3 2 -8 17 -25 31 -16 15 -30 32 -30 37 0
6 -7 10 -16 10 -9 0 -14 6 -11 13 3 8 2 19 -3 26 -5 9 -9 3 -13 -16z"/>
<path d="M12 460 c-8 -14 -12 -82 -12 -240 0 -189 2 -220 15 -220 13 0 15 33
15 240 0 132 -1 240 -3 240 -1 0 -8 -9 -15 -20z"/>
<path d="M916 444 c-40 -48 -77 -45 -190 12 -16 8 -31 13 -33 10 -8 -8 45 -56
62 -56 8 0 15 -3 15 -8 0 -4 30 -4 68 0 37 4 77 8 89 8 16 0 20 5 16 19 -3 14
0 19 13 18 23 -3 29 19 6 25 -12 4 -27 -6 -46 -28z"/>
<path d="M2051 380 c0 -31 16 -108 19 -95 5 25 -2 101 -11 110 -5 5 -9 0 -8
-15z"/>
<path d="M172 372 c-9 -6 -4 -16 17 -36 16 -16 34 -25 39 -22 6 4 14 1 17 -5
4 -5 14 -8 22 -5 9 4 21 -1 29 -11 7 -10 14 -13 14 -7 0 13 58 -4 112 -32 39
-20 63 -12 46 15 -7 11 -14 18 -17 16 -2 -3 -15 2 -28 11 -25 16 -54 25 -85
27 -10 1 -18 4 -18 8 0 3 -11 5 -25 4 -14 -2 -27 1 -31 6 -3 5 -16 9 -29 9
-12 0 -25 7 -29 15 -6 17 -15 19 -34 7z"/>
<path d="M1962 323 c-6 -3 -9 -10 -5 -16 4 -7 8 -16 8 -22 0 -5 8 -9 16 -9 11
1 15 -5 12 -17 -4 -15 -1 -18 11 -13 23 9 18 60 -6 56 -9 -1 -18 4 -20 11 -2
8 -9 12 -16 10z"/>
<path d="M1690 268 c-19 -10 -26 -16 -15 -12 11 4 32 7 48 8 28 0 36 10 14 19
-7 3 -28 -4 -47 -15z"/>
<path d="M477 232 c-9 -10 -23 -38 -31 -63 -8 -24 -25 -72 -39 -107 -24 -58
-24 -62 -7 -62 13 0 25 17 41 55 12 30 27 55 31 55 5 0 7 4 4 8 -3 5 2 21 10
37 8 15 12 30 10 33 -3 2 -1 14 5 24 15 28 -3 43 -24 20z"/>
<path d="M606 232 c10 -9 108 -37 159 -46 28 -5 28 -5 8 6 -13 6 -23 15 -23
20 0 5 -15 8 -32 7 -18 0 -49 4 -68 10 -42 13 -58 14 -44 3z"/>
<path d="M1612 194 c-23 -16 -31 -54 -11 -54 6 0 9 -9 6 -20 -3 -11 -2 -20 3
-20 12 0 21 31 14 52 -3 12 1 27 12 39 21 23 7 25 -24 3z"/>
<path d="M1405 177 c-21 -11 -34 -22 -28 -24 15 -5 73 25 73 37 0 6 -1 9 -2 9
-2 -1 -21 -11 -43 -22z"/>
<path d="M2085 168 c-2 -7 -7 -32 -9 -55 -4 -34 -2 -43 11 -43 11 0 14 7 11
25 -3 13 -2 23 1 20 4 -2 7 12 7 31 0 33 -12 46 -21 22z"/>
<path d="M829 165 c-3 -2 -54 -5 -114 -6 -72 -1 -102 -5 -87 -10 32 -12 183
-6 207 9 11 6 15 12 9 12 -6 0 -13 -2 -15 -5z"/>
<path d="M1860 140 c0 -10 -98 -60 -118 -60 -7 0 -12 -4 -12 -10 0 -5 5 -10
11 -10 19 0 119 51 119 61 0 5 10 14 23 19 l22 9 -22 0 c-13 1 -23 -3 -23 -9z"/>
<path d="M1474 125 c-10 -8 -29 -15 -41 -15 -13 0 -23 -4 -23 -9 0 -11 57 -3
83 10 17 10 24 29 9 29 -5 0 -17 -7 -28 -15z"/>
<path d="M755 94 c37 -18 65 -23 110 -23 l60 2 -60 7 c-33 4 -80 15 -104 24
-62 23 -65 19 -6 -10z"/>
<path d="M643 75 c-10 -11 -7 -13 15 -10 15 2 45 4 66 4 51 1 43 7 -19 14 -35
4 -54 1 -62 -8z"/>
<path d="M2079 58 c-8 -25 -3 -58 8 -58 7 0 13 9 13 20 0 11 0 23 1 27 0 7
-20 18 -22 11z"/>
</g>
</svg>
