<?xml version="1.0" standalone="no"?>
<!DOCTYPE svg PUBLIC "-//W3C//DTD SVG 20010904//EN"
 "http://www.w3.org/TR/2001/REC-SVG-20010904/DTD/svg10.dtd">
<svg version="1.0" xmlns="http://www.w3.org/2000/svg"
 width="253.000000pt" height="174.000000pt" viewBox="0 0 253.000000 174.000000"
 preserveAspectRatio="xMidYMid meet">
<metadata>
Created by potrace 1.10, written by Peter Selinger 2001-2011
</metadata>
<g transform="translate(0.000000,174.000000) scale(0.100000,-0.100000)"
fill="#000000" stroke="none">
<path d="M0 1730 c0 -6 120 -10 340 -10 220 0 340 4 340 10 0 6 -120 10 -340
10 -220 0 -340 -4 -340 -10z"/>
<path d="M920 1730 c0 -5 11 -10 24 -10 15 0 26 -7 29 -17 4 -17 5 -17 6 0 1
10 9 17 21 17 13 0 18 -5 14 -15 -4 -8 -1 -15 6 -15 10 0 10 -3 0 -15 -10 -13
-11 -18 -1 -28 10 -9 11 -8 6 6 -4 10 -2 17 4 17 7 0 9 9 5 25 -6 24 -4 25 40
25 33 0 46 -4 46 -14 0 -8 7 -16 15 -20 8 -3 15 -1 15 4 0 6 -4 10 -10 10 -5
0 -10 4 -10 9 0 10 195 6 248 -5 17 -3 32 -2 32 3 0 15 73 13 85 -3 6 -9 19
-11 34 -7 23 6 24 7 5 14 -10 4 45 8 124 8 82 -1 140 -5 136 -10 -3 -5 -1 -9
5 -9 5 0 13 5 16 10 4 6 62 10 141 10 88 0 133 4 129 10 -4 6 -210 10 -586 10
-379 0 -579 -3 -579 -10z"/>
<path d="M905 1696 c19 -29 10 -36 -12 -8 -13 15 -13 15 -4 -5 6 -12 11 -29
11 -38 0 -9 7 -24 16 -33 11 -11 13 -17 5 -20 -6 -2 -9 -7 -7 -11 3 -4 -13
-18 -35 -32 -69 -42 -84 -58 -69 -72 10 -9 11 -9 6 1 -4 7 -1 12 8 12 9 0 16
5 16 10 0 6 16 18 35 27 19 9 32 20 29 25 -3 4 2 8 10 8 29 0 17 -29 -34 -79
-54 -54 -58 -61 -35 -61 8 0 15 7 15 15 0 8 8 19 19 24 10 6 29 27 42 48 23
38 25 44 28 64 0 6 8 8 17 5 10 -4 6 5 -10 25 -27 32 -28 34 -30 84 -1 20 -7
31 -19 33 -18 4 -18 3 -2 -22z"/>
<path d="M1605 1703 c-11 -3 -24 -9 -29 -14 -15 -14 14 -10 49 6 29 13 19 17
-20 8z"/>
<path d="M1732 1690 c-15 -24 -16 -41 -1 -20 8 12 9 10 4 -9 -5 -15 -3 -21 3
-17 6 3 12 1 14 -5 2 -7 13 -9 27 -4 23 7 23 7 -8 26 -20 12 -29 24 -25 34 9
21 1 19 -14 -5z"/>
<path d="M638 1625 c-14 -36 -24 -65 -23 -65 1 0 12 9 25 20 15 13 24 35 27
65 3 25 4 45 1 45 -2 0 -16 -29 -30 -65z"/>
<path d="M1267 1669 c-4 -15 -11 -20 -22 -15 -9 3 -14 2 -11 -3 7 -11 -17 -21
-50 -21 -13 0 -24 -6 -24 -13 0 -17 55 -10 71 9 6 8 17 14 25 14 12 0 34 29
34 44 0 16 -18 3 -23 -15z"/>
<path d="M1840 1682 c28 -9 48 -33 43 -52 -3 -12 3 -22 16 -29 25 -14 27 -4 4
21 -18 20 -5 25 17 6 8 -7 4 -1 -9 14 -13 14 -20 31 -17 36 3 6 -10 10 -32 10
-20 0 -30 -3 -22 -6z"/>
<path d="M950 1665 c0 -11 11 -33 24 -50 21 -26 26 -28 47 -18 18 9 20 12 7
12 -10 1 -18 7 -18 14 0 6 -8 21 -17 32 -15 19 -15 19 -9 -8 6 -24 5 -27 -8
-15 -7 7 -12 15 -11 18 2 3 0 12 -6 20 -7 12 -9 11 -9 -5z"/>
<path d="M1050 1673 c0 -7 10 -23 23 -37 20 -23 24 -24 41 -11 18 13 18 15 3
16 -33 3 -36 4 -51 24 -9 11 -16 15 -16 8z"/>
<path d="M1090 1672 c0 -13 53 -23 65 -11 5 6 4 9 -5 9 -8 0 -25 3 -37 6 -13
4 -23 2 -23 -4z"/>
<path d="M1346 1670 c-1 -3 -2 -12 -1 -20 1 -8 3 -25 3 -38 1 -15 6 -21 15
-16 10 6 10 4 0 -7 -7 -7 -13 -22 -12 -33 l0 -21 9 20 c7 20 40 53 40 42 0
-11 -45 -82 -62 -99 -10 -10 -18 -26 -18 -35 -1 -17 -1 -17 -11 0 -6 10 -9 34
-7 52 2 19 0 31 -4 29 -10 -6 -10 -75 0 -90 8 -12 52 -14 52 -1 0 4 4 6 10 2
5 -3 14 13 20 35 6 22 22 57 35 77 28 40 33 62 10 43 -10 -8 -15 -9 -15 -2 0
6 -6 9 -13 6 -8 -3 -18 6 -25 21 -7 15 -8 24 -3 21 5 -3 14 0 20 8 10 11 7 14
-15 12 -14 0 -27 -3 -28 -6z"/>
<path d="M1495 1669 c-4 -6 -14 -8 -22 -5 -8 3 -24 -4 -36 -15 l-22 -22 30 7
c26 6 81 46 63 46 -4 0 -10 -5 -13 -11z"/>
<path d="M1615 1660 c3 -5 -17 -12 -47 -16 -29 -4 -47 -9 -40 -12 10 -3 10 -9
-3 -28 -15 -23 -14 -24 5 -24 12 0 19 4 16 8 -3 5 9 6 27 3 19 -3 25 -6 15 -9
-19 -4 -25 -22 -8 -22 6 0 13 0 17 -1 9 -1 40 84 35 99 -2 7 -8 12 -13 12 -6
0 -8 -4 -4 -10z"/>
<path d="M1700 1646 c0 -16 -6 -26 -14 -26 -17 0 -49 -47 -41 -60 3 -6 2 -10
-3 -10 -5 0 -12 -9 -15 -20 -3 -11 -12 -20 -21 -20 -9 0 -16 -4 -16 -10 0 -5
-7 -10 -17 -10 -12 0 -9 7 13 26 16 15 23 23 16 19 -7 -4 -19 -1 -27 5 -12 10
-15 9 -15 -9 0 -11 -4 -21 -9 -21 -4 0 -6 12 -4 28 4 26 4 26 -11 8 -9 -11
-16 -16 -17 -10 0 5 -4 -1 -10 -14 -5 -13 -13 -21 -18 -17 -6 3 -9 -4 -8 -15
1 -22 17 -28 17 -7 0 15 46 21 55 7 7 -12 42 -13 47 -2 2 5 52 33 111 60 4 2
7 -11 5 -30 -1 -19 2 -40 6 -47 5 -8 3 -17 -5 -22 -11 -6 -9 -16 10 -51 33
-60 49 -71 71 -50 22 21 41 88 34 119 -3 12 -1 36 5 53 9 28 8 32 -14 42 -14
6 -21 16 -18 22 4 6 -1 5 -10 -3 -18 -14 -22 -22 -9 -19 16 3 42 -15 42 -30 0
-13 -2 -13 -18 1 -10 9 -34 19 -53 21 -27 3 -33 8 -31 22 3 16 -1 14 -25 -8
-51 -49 -61 -29 -13 25 31 35 38 61 20 72 -6 4 -10 -5 -10 -19z m93 -117 c43
-20 41 -140 -2 -124 -9 4 -11 0 -7 -11 4 -11 1 -14 -12 -12 -9 2 -18 12 -18
23 -1 11 -3 22 -4 25 -6 18 -7 40 -1 40 11 0 7 54 -4 62 -16 12 21 9 48 -3z"/>
<path d="M1297 1637 c-4 -15 -11 -26 -15 -24 -4 3 -23 -2 -42 -9 -19 -8 -25
-12 -12 -10 18 3 21 1 13 -8 -6 -7 -8 -16 -4 -19 3 -4 1 -7 -5 -7 -7 0 -12 -5
-12 -10 0 -6 11 -3 25 6 29 19 48 11 21 -9 -14 -10 -15 -17 -7 -37 l11 -25 -3
25 c-1 16 6 32 21 45 19 17 23 28 20 65 -3 41 -4 42 -11 17z"/>
<path d="M1470 1615 c-15 -16 -19 -25 -10 -25 9 0 8 -5 -5 -20 -17 -19 -17
-60 0 -120 l7 -25 -17 23 c-9 12 -20 20 -25 17 -4 -3 -11 1 -14 7 -4 7 -4 2 0
-12 3 -14 6 -30 6 -37 2 -15 68 -90 68 -76 0 6 -7 16 -16 24 -18 15 -44 63
-44 81 0 7 9 0 19 -15 12 -19 20 -24 23 -15 4 11 7 11 21 -1 9 -7 14 -17 12
-22 -9 -14 35 -33 48 -20 11 11 0 15 -33 12 -11 -1 -12 0 -2 7 10 6 8 13 -8
27 -26 23 -50 72 -50 99 0 28 12 45 40 59 29 15 38 37 15 37 -9 0 -13 5 -10
10 11 18 -1 11 -25 -15z"/>
<path d="M1731 1625 c-1 -5 8 -20 17 -33 16 -21 20 -22 31 -8 11 14 11 16 -4
16 -10 0 -24 8 -31 18 -7 9 -13 13 -13 7z"/>
<path d="M1114 1584 c2 -6 0 -17 -6 -25 -7 -11 -11 -11 -15 -1 -3 8 -9 10 -16
3 -7 -5 -16 -11 -22 -13 -12 -4 -16 -26 -5 -33 4 -3 13 2 20 10 7 8 20 15 29
15 9 0 25 7 35 15 27 21 46 19 46 -5 0 -11 5 -20 11 -20 5 0 7 -5 3 -12 -4 -6
-3 -8 4 -5 16 11 -9 67 -30 67 -10 0 -18 4 -18 9 0 6 -9 9 -20 8 -11 -1 -19
-6 -16 -13z"/>
<path d="M1860 1560 c0 -5 8 -11 18 -13 16 -4 16 -5 -1 -6 -14 -1 -16 -5 -7
-20 7 -13 7 -22 0 -26 -5 -3 -10 -24 -10 -46 0 -48 19 -44 21 4 1 18 3 24 6
15 8 -33 26 -19 19 15 -4 17 -6 43 -6 57 0 19 -6 26 -20 27 -11 1 -20 -2 -20
-7z"/>
<path d="M975 1515 c-21 -19 -36 -35 -34 -36 2 -1 19 -2 38 -4 22 -2 29 0 20
6 -8 5 -11 9 -6 10 4 1 10 2 15 3 18 3 30 17 28 33 -4 29 -22 25 -61 -12z"/>
<path d="M1144 1534 c-16 -13 -17 -15 -1 -10 9 3 17 1 17 -4 0 -6 -4 -10 -10
-10 -5 0 -10 -6 -10 -14 0 -9 7 -12 20 -9 16 4 19 11 13 32 -8 34 -6 33 -29
15z"/>
<path d="M933 1503 c-9 -16 -21 -34 -26 -41 -7 -9 -5 -11 7 -6 9 3 24 0 33 -7
15 -13 15 -12 0 12 -15 23 -15 27 -1 47 8 12 13 22 10 22 -3 0 -13 -12 -23
-27z"/>
<path d="M1223 1516 c-10 -11 -9 -15 3 -20 13 -5 12 -9 -5 -28 -12 -12 -21
-27 -21 -32 0 -6 7 -2 15 8 8 11 16 16 17 10 7 -48 17 -62 39 -57 10 3 19 1
19 -5 0 -5 7 -13 16 -16 11 -4 14 -1 10 12 -4 13 0 17 19 18 14 1 22 -2 19 -7
-3 -5 1 -9 9 -9 19 0 16 -37 -6 -78 l-18 -34 22 4 c12 2 24 9 27 17 3 8 0 11
-6 7 -8 -5 -8 2 -1 23 9 24 13 28 24 18 9 -8 10 -16 3 -24 -13 -17 4 -17 20
-1 7 7 12 8 12 2 0 -6 11 -16 25 -22 14 -6 24 -8 24 -4 -1 4 -1 14 0 22 1 12
3 12 10 2 4 -8 11 -13 15 -13 16 2 18 0 6 -14 -23 -27 8 -16 35 12 14 15 25
24 25 19 0 -6 -9 -20 -21 -32 -17 -18 -18 -22 -5 -27 10 -4 16 -1 16 8 0 11 7
12 32 4 23 -6 34 -5 40 4 6 9 8 9 8 0 0 -16 26 -17 35 -2 4 6 -1 13 -12 15
-10 3 -26 22 -35 42 -15 34 -16 35 -17 11 -1 -14 -8 -34 -16 -45 -15 -18 -16
-17 -10 14 6 31 6 32 -19 22 -32 -12 -76 -9 -76 4 0 5 -6 2 -13 -9 -13 -17
-15 -17 -46 1 -17 10 -39 36 -48 56 -16 36 -19 38 -52 32 -20 -3 -49 -8 -66
-10 l-30 -5 22 19 c15 13 18 23 12 33 -7 11 -9 10 -10 -6 0 -11 -3 -14 -6 -7
-2 6 -9 10 -14 6 -5 -3 -9 0 -9 5 0 6 5 11 12 11 7 0 6 6 -4 18 -9 9 -13 23
-11 30 6 15 1 15 -14 -2z"/>
<path d="M1047 1486 c-30 -24 -34 -36 -13 -36 8 0 23 12 35 28 17 23 19 24 15
5 -8 -29 -40 -57 -58 -50 -18 7 -25 -25 -14 -66 4 -16 3 -38 -2 -50 -8 -19 -9
-19 -9 -3 -1 15 -4 16 -16 6 -13 -11 -14 -8 -10 21 5 33 5 33 -7 -5 -16 -48
-30 -52 -33 -8 -2 24 1 32 14 32 14 0 14 2 1 10 -8 5 -10 10 -4 10 7 0 11 8
10 18 0 10 6 16 16 16 10 -1 15 2 12 7 -3 5 0 9 7 9 7 0 10 3 7 6 -12 11 -50
-18 -60 -47 -5 -16 -15 -29 -20 -29 -7 0 -6 -5 1 -14 9 -10 7 -19 -9 -37 -15
-17 -23 -20 -27 -11 -4 10 -11 9 -31 -4 -22 -15 -25 -15 -14 -2 8 10 9 19 4
22 -6 3 -15 0 -21 -8 -10 -12 -61 -11 -61 2 0 3 10 17 23 30 l22 25 -22 -12
c-39 -20 -54 -50 -40 -83 12 -29 35 -39 29 -14 -1 7 6 20 15 27 17 13 17 13 3
-6 -14 -18 -14 -19 2 -7 9 8 26 11 37 7 10 -3 22 -1 26 5 3 5 11 10 17 10 7 0
6 -6 -2 -15 -10 -12 -10 -15 3 -15 8 0 20 7 27 15 7 8 17 15 23 15 5 0 2 -9
-7 -19 -17 -19 -17 -19 21 -6 21 8 50 14 66 15 15 0 36 9 47 20 23 23 31 25
24 6 -6 -17 34 -29 93 -29 45 0 67 12 85 47 9 18 9 19 -3 10 -8 -6 -26 -11
-41 -10 -15 1 -30 -4 -33 -12 -3 -7 -10 -10 -16 -7 -7 5 -7 11 -1 17 7 7 4 17
-8 30 -19 20 -41 17 -39 -5 0 -9 2 -9 6 1 2 6 9 12 14 12 6 0 8 -4 5 -9 -4 -5
-1 -11 6 -13 7 -3 3 -13 -12 -28 -21 -21 -24 -22 -35 -6 -7 9 -11 27 -8 39 3
18 -3 14 -32 -18 l-37 -40 26 52 c18 36 22 51 12 47 -11 -4 -13 0 -9 15 3 11
9 18 14 15 5 -3 9 2 9 10 0 9 7 16 15 16 8 0 19 9 25 19 13 26 13 34 -2 26 -7
-4 -5 0 6 9 17 14 16 15 -11 14 -16 -1 -41 -11 -56 -22z"/>
<path d="M1648 1474 c-47 -25 -31 -51 25 -38 l32 7 -28 10 c-26 8 -27 10 -10
23 24 18 15 17 -19 -2z"/>
<path d="M1535 1450 c-3 -5 -13 -6 -23 -3 -15 6 -15 4 2 -15 22 -25 48 -30 40
-7 -4 8 -1 15 5 15 6 0 10 -3 10 -7 -3 -20 2 -24 16 -13 25 21 18 40 -14 40
-17 0 -32 -4 -36 -10z"/>
<path d="M680 1419 c0 -16 4 -28 9 -24 5 3 12 -4 16 -15 3 -11 13 -20 22 -20
13 0 13 3 3 15 -11 13 -10 14 5 9 13 -5 16 -4 11 5 -5 7 -19 16 -32 21 -15 6
-22 15 -18 25 3 8 1 15 -5 15 -6 0 -11 -14 -11 -31z"/>
<path d="M1906 1432 c-7 -12 3 -42 14 -42 16 0 18 15 5 33 -7 10 -16 14 -19 9z"/>
<path d="M865 1416 c-12 -8 -26 -11 -35 -7 -8 5 -29 4 -45 0 -23 -6 -31 -15
-33 -34 -2 -30 -1 -30 28 -5 27 23 50 26 50 6 0 -17 25 -15 42 2 7 7 16 12 20
12 11 0 -13 -41 -32 -56 -8 -7 -13 -15 -10 -17 8 -9 34 16 53 50 26 47 21 54
-20 32 l-38 -21 30 26 c31 27 23 36 -10 12z"/>
<path d="M1665 1418 c-8 -19 -1 -32 37 -77 15 -18 32 -29 38 -26 15 9 12 20
-10 46 -14 17 -18 19 -14 7 12 -36 -8 -17 -26 24 -14 32 -20 39 -25 26z"/>
<path d="M1143 1400 c2 -30 17 -29 37 2 14 23 14 23 -7 5 -21 -18 -21 -18 -26
0 -4 11 -5 9 -4 -7z"/>
<path d="M657 1373 c-4 -3 0 -17 8 -29 11 -17 12 -24 2 -27 -6 -3 -7 -6 -2 -6
6 0 19 6 29 14 19 14 19 15 1 35 -19 21 -28 24 -38 13z"/>
<path d="M1850 1350 c0 -18 2 -19 20 -8 11 7 20 16 20 20 0 5 -9 8 -20 8 -13
0 -20 -7 -20 -20z"/>
<path d="M318 1354 c-5 -4 -8 -21 -8 -38 0 -20 -13 -45 -40 -78 -22 -26 -57
-78 -77 -115 -19 -37 -43 -74 -51 -80 -9 -7 -12 -13 -8 -13 4 0 0 -7 -8 -16
-9 -8 -16 -21 -16 -29 0 -7 -21 -32 -46 -54 -54 -48 -46 -55 12 -11 30 22 56
58 100 140 69 131 154 239 187 241 20 1 20 2 -5 12 -15 6 -28 19 -30 30 -2 10
-6 15 -10 11z"/>
<path d="M1299 1341 c29 -22 20 -45 -15 -37 -18 5 -22 3 -18 -9 4 -8 9 -15 13
-16 3 0 14 -2 23 -4 10 -2 18 6 22 21 8 30 -9 64 -32 64 -14 0 -12 -4 7 -19z"/>
<path d="M784 1325 c-19 -14 -19 -14 2 -15 12 0 27 7 34 15 17 20 -9 21 -36 0z"/>
<path d="M470 1306 l-45 -10 35 -3 c96 -9 178 -26 209 -44 18 -11 36 -17 39
-15 3 3 -3 8 -12 12 -12 5 -14 10 -6 19 14 17 -4 23 -85 31 -32 3 -66 9 -74
13 -9 4 -36 3 -61 -3z"/>
<path d="M1820 1310 c0 -21 2 -25 12 -22 5 1 7 -2 3 -8 -3 -5 3 -10 14 -10 21
0 21 0 -1 25 -24 28 -28 30 -28 15z"/>
<path d="M1777 1288 c6 -7 13 -25 17 -40 7 -32 26 -35 96 -14 53 15 70 12 70
-15 0 -14 -14 -26 -42 -40 l-43 -19 50 6 c53 6 97 23 62 24 -11 0 -15 5 -11
11 3 6 15 8 26 6 14 -4 28 3 43 21 20 23 25 25 49 14 37 -16 39 -76 7 -141
-18 -35 -18 -37 0 -81 12 -31 18 -72 18 -131 1 -136 14 -181 74 -268 l54 -76
107 -36 c59 -20 111 -40 116 -45 18 -20 52 -205 46 -252 -4 -26 -2 -60 3 -77
20 -63 6 225 -15 293 l-19 63 -108 36 c-89 29 -111 40 -129 67 -11 17 -26 36
-32 41 -6 6 -22 32 -35 60 -20 41 -25 67 -28 155 -1 58 -10 134 -19 169 -10
35 -13 66 -8 70 5 3 11 13 13 21 21 85 21 92 4 120 -26 45 -88 57 -126 23 -15
-13 -21 -15 -24 -5 -3 6 -9 10 -14 6 -5 -3 -9 -1 -9 4 0 6 -7 13 -16 16 -9 3
-12 2 -9 -5 4 -6 -3 -7 -19 -3 -16 4 -26 2 -26 -5 0 -6 -11 -8 -29 -5 -16 4
-32 1 -35 -5 -4 -6 -12 -11 -17 -11 -6 0 -7 5 -4 11 4 5 -1 19 -11 30 -19 21
-43 27 -27 7z"/>
<path d="M1015 1207 c9 -57 23 -69 22 -18 -1 23 1 41 6 41 4 0 7 -5 7 -11 0
-5 5 -7 10 -4 6 3 10 -2 11 -12 0 -10 1 -48 2 -84 1 -41 6 -65 12 -62 6 2 10
37 8 88 -1 47 -1 85 2 85 2 0 9 -15 14 -32 l9 -33 1 30 c1 23 4 27 11 15 6
-10 10 -11 10 -3 0 16 -57 46 -62 33 -2 -7 -15 -7 -36 0 l-34 9 7 -42z"/>
<path d="M1176 1220 c15 -28 34 -48 34 -35 0 12 -34 65 -41 65 -4 0 -1 -13 7
-30z"/>
<path d="M1214 1220 c9 -19 21 -43 27 -53 5 -10 7 -27 4 -37 -4 -11 1 -23 13
-32 10 -7 24 -22 30 -33 9 -15 11 -16 12 -4 0 9 -9 24 -20 34 -11 10 -19 25
-19 34 1 13 2 13 6 -1 4 -15 23 -27 23 -14 0 20 -25 66 -37 66 -9 0 -13 6 -10
14 3 8 -6 24 -20 37 l-26 24 17 -35z"/>
<path d="M800 1230 c-14 -4 -35 -5 -47 -3 -13 3 -23 1 -23 -5 0 -5 10 -12 23
-16 24 -6 97 -63 97 -76 0 -4 -17 -2 -37 6 -21 7 -64 13 -95 14 -47 0 -59 4
-68 20 -11 20 -11 20 -39 -1 -40 -29 -73 -22 -83 18 -12 45 -28 51 -18 6 10
-44 5 -56 -21 -48 -22 7 -24 -3 -4 -29 12 -16 23 -18 87 -13 40 4 93 10 118
14 72 13 122 2 139 -28 13 -24 13 -29 -1 -51 -17 -26 -103 -58 -157 -58 -47 0
-98 -27 -128 -69 -15 -20 -45 -55 -67 -78 -35 -37 -37 -43 -21 -49 12 -5 22
-1 31 10 12 17 13 17 26 -3 12 -19 45 -31 36 -13 -2 4 -10 19 -17 34 -12 24
-11 31 15 73 16 25 39 48 52 51 12 4 22 10 22 16 0 5 5 6 10 3 6 -3 10 -15 10
-25 0 -14 5 -18 16 -13 14 5 16 2 11 -18 -3 -13 -2 -31 3 -39 11 -17 11 -17
14 33 2 20 -1 37 -5 37 -5 0 -6 7 -3 15 9 23 18 18 33 -17 20 -45 51 -65 51
-33 0 8 -4 15 -10 15 -5 0 -10 7 -10 16 0 9 5 12 13 8 6 -4 1 5 -13 21 -22 24
-23 27 -5 21 11 -3 33 1 49 9 39 20 69 19 91 -5 17 -18 17 -21 1 -45 -17 -26
-45 -32 -76 -15 -14 8 -19 5 -23 -11 -3 -12 -2 -31 3 -42 5 -12 9 -17 9 -11 1
5 8 19 17 30 8 10 13 13 9 7 -8 -16 3 -16 43 -2 29 10 60 59 54 86 -2 9 28 11
115 10 l118 -2 -3 -25 c-1 -14 1 -20 5 -13 5 6 86 28 181 49 94 20 172 40 172
43 0 4 -15 15 -32 26 -18 10 -64 41 -101 68 -38 26 -72 45 -75 41 -4 -4 -1 -9
6 -11 7 -3 12 -22 12 -44 0 -21 4 -39 8 -39 5 0 9 -13 9 -30 0 -16 -3 -27 -7
-25 -4 2 -16 -2 -26 -10 -23 -17 -35 -19 -32 -4 2 6 -3 14 -11 17 -10 3 -12 0
-8 -12 6 -14 -9 -16 -141 -16 -167 0 -260 8 -240 21 11 7 10 11 -2 19 -11 8 0
10 42 8 59 -3 74 6 57 33 -7 11 -9 11 -9 -3 0 -29 -27 -20 -40 13 -8 18 -18
28 -26 25 -7 -3 -11 0 -9 7 3 7 -11 23 -29 37 -19 14 -32 28 -29 33 8 14 34 7
56 -15 12 -13 32 -31 44 -41 l22 -19 -11 36 c-6 20 -16 36 -21 36 -5 0 -6 -8
-3 -17 4 -12 -1 -10 -17 7 -41 46 -60 57 -87 50z m576 -133 c3 -9 10 -15 15
-12 5 4 9 2 9 -4 0 -5 8 -11 18 -13 12 -3 5 -9 -22 -22 -44 -18 -71 -14 -62 9
3 8 1 27 -4 41 -6 14 -8 30 -5 35 8 12 44 -12 51 -34z"/>
<path d="M967 1190 c9 -86 17 -104 53 -122 40 -20 56 -6 21 18 -12 8 -22 25
-22 37 -1 20 -2 20 -6 2 -6 -25 -19 -40 -21 -23 0 7 -3 31 -6 53 -4 31 -4 34
3 15 8 -22 9 -19 10 20 1 38 -2 46 -18 46 -16 0 -17 -7 -14 -46z"/>
<path d="M1358 1201 c23 -23 47 -41 52 -41 31 0 -25 66 -64 75 -30 6 -30 6 12
-34z"/>
<path d="M891 1214 c-1 -17 4 -20 24 -17 25 5 24 7 41 -76 8 -37 10 -21 6 41
-3 45 -8 57 -23 61 -10 3 -17 1 -13 -4 3 -5 -1 -9 -10 -9 -8 0 -17 6 -19 13
-3 6 -6 2 -6 -9z"/>
<path d="M1156 1185 c11 -77 25 -101 20 -31 -3 32 -10 64 -16 70 -7 7 -8 -4
-4 -39z"/>
<path d="M1420 1208 c0 -4 5 -10 10 -13 6 -3 10 -16 10 -28 0 -16 14 -30 51
-50 39 -22 49 -33 43 -45 -8 -20 -16 -93 -8 -74 3 6 9 10 12 8 4 -2 7 9 8 25
1 16 12 41 24 54 23 24 16 37 -7 14 -9 -9 -16 -3 -27 22 -8 19 -15 28 -15 22
-2 -26 -22 -11 -43 31 -14 30 -27 44 -40 43 -10 -1 -18 -5 -18 -9z"/>
<path d="M2000 1173 c-15 -4 -44 -53 -31 -53 10 0 56 49 50 53 -2 2 -11 2 -19
0z"/>
<path d="M1183 1094 c-7 -3 -10 -11 -7 -19 3 -7 1 -16 -5 -20 -6 -3 -11 -1
-11 6 0 7 -3 10 -6 6 -9 -9 29 -56 46 -56 12 0 11 3 -4 14 -15 12 -17 19 -8
44 6 17 10 31 9 30 -1 0 -7 -3 -14 -5z"/>
<path d="M1470 975 c-36 -7 -119 -19 -184 -26 -65 -7 -114 -15 -109 -16 6 -2
9 -12 6 -22 -3 -10 0 -22 6 -25 6 -4 9 -1 5 7 -5 15 16 29 54 33 14 2 22 -3
22 -12 0 -8 5 -12 10 -9 6 4 8 10 5 15 -3 4 2 11 11 14 26 10 34 7 34 -14 0
-11 4 -20 9 -20 5 0 7 8 4 19 -4 14 3 20 27 25 46 9 50 8 51 -11 0 -15 2 -15
8 2 7 17 10 13 22 -25 7 -25 17 -48 22 -51 5 -4 25 9 45 27 45 41 52 42 52 6
0 -15 5 -33 11 -39 6 -6 12 -17 14 -24 9 -41 19 -58 35 -62 14 -4 10 13 -25
87 -23 50 -46 101 -49 114 -4 12 -10 21 -14 21 -4 -1 -36 -7 -72 -14z m16 -59
c2 -29 -21 -25 -29 5 -4 13 0 19 11 19 11 0 18 -9 18 -24z"/>
<path d="M700 877 c0 -15 5 -27 11 -27 5 0 7 -4 4 -10 -3 -5 -1 -10 5 -10 8 0
10 9 5 28 -10 40 -25 51 -25 19z"/>
<path d="M613 863 c-7 -15 -20 -39 -30 -53 -17 -24 -17 -24 0 -11 22 17 50 68
45 82 -2 5 -9 -3 -15 -18z"/>
<path d="M757 872 c-5 -6 -3 -28 4 -47 11 -30 11 -37 -6 -55 -10 -11 -16 -23
-13 -26 9 -8 48 47 48 68 0 11 -4 17 -9 13 -5 -3 -11 9 -13 27 -2 21 -6 29
-11 20z"/>
<path d="M1424 834 c-4 -25 -14 -38 -30 -44 -13 -5 -24 -14 -24 -20 0 -6 11
-3 25 6 25 16 27 16 46 -5 12 -12 24 -20 27 -17 3 4 -3 12 -13 19 -12 10 -18
27 -18 55 0 51 -4 53 -13 6z"/>
<path d="M831 773 c0 -12 -7 -24 -13 -26 -8 -3 -6 -6 5 -6 12 -1 16 -7 14 -23
-2 -13 -2 -17 0 -11 3 10 7 10 17 0 8 -6 11 -18 9 -24 -3 -7 0 -13 7 -13 8 0
9 10 4 33 -4 17 -7 38 -7 45 0 6 -6 12 -13 12 -7 0 -15 8 -17 18 -4 13 -5 12
-6 -5z"/>
<path d="M1275 770 c-3 -5 -18 -7 -34 -4 -33 7 -97 -30 -105 -60 -2 -10 -9
-15 -14 -12 -6 3 -18 -6 -28 -21 l-17 -28 27 19 28 18 -7 -24 c-15 -52 -16
-58 -11 -58 4 0 13 18 22 39 27 69 123 114 164 79 8 -7 7 -4 -3 8 -10 12 -15
28 -11 38 7 17 -1 22 -11 6z"/>
<path d="M1305 761 c-3 -5 3 -16 13 -23 39 -28 71 -83 74 -128 3 -36 5 -41 13
-25 5 11 13 23 19 27 8 5 7 11 -2 20 -6 6 -12 20 -12 30 0 11 -9 28 -20 40
-11 12 -20 28 -20 35 0 8 -4 11 -10 8 -5 -3 -10 2 -10 12 0 15 -2 16 -10 3 -6
-10 -10 -11 -10 -2 0 14 -16 16 -25 3z"/>
<path d="M323 740 c-46 -20 -59 -36 -18 -20 38 14 30 -2 -15 -30 -37 -23 -56
-47 -46 -58 9 -8 64 42 95 86 17 23 30 42 29 42 -2 0 -22 -9 -45 -20z"/>
<path d="M710 701 c0 -20 -6 -32 -18 -36 -63 -19 -50 -179 18 -215 16 -9 16
-6 -3 31 l-22 40 24 20 c31 25 53 24 79 -4 26 -28 27 -45 5 -77 -16 -24 -16
-24 2 -10 10 8 21 15 24 15 3 0 5 12 4 26 -2 16 3 29 12 33 9 3 15 0 15 -8 0
-8 10 -20 23 -29 l22 -14 -45 -51 c-64 -72 -93 -112 -81 -112 6 0 31 22 57 50
70 74 91 66 29 -11 -19 -24 -35 -49 -35 -54 0 -6 11 -19 25 -29 13 -10 22 -22
20 -27 -3 -4 -1 -10 5 -14 5 -3 10 -1 10 4 0 6 5 11 11 11 5 0 8 -3 6 -7 -3
-5 7 -9 23 -10 15 -1 48 -13 73 -27 49 -28 62 -32 52 -16 -11 18 6 11 37 -15
17 -14 33 -23 36 -20 4 3 0 10 -8 15 -9 6 -10 10 -3 10 13 0 107 -43 125 -57
20 -16 82 -28 74 -14 -5 7 5 11 28 11 25 0 36 -5 36 -14 0 -25 17 -27 57 -7
21 11 54 19 76 18 24 -2 37 2 37 10 0 7 -7 10 -17 6 -11 -5 -14 -3 -8 6 6 10
3 11 -12 2 -11 -6 -23 -8 -26 -4 -3 3 -48 7 -99 10 -91 4 -172 22 -215 49 -11
7 -55 17 -97 23 -42 5 -88 16 -101 25 -13 9 -38 16 -55 16 -31 0 -35 5 -54 68
-6 19 -4 22 18 22 26 0 31 10 26 53 -1 10 5 28 13 40 15 24 12 47 -7 47 -7 0
-22 13 -34 30 -13 16 -28 27 -36 24 -10 -4 -12 2 -9 20 3 14 1 26 -5 26 -5 0
-13 11 -16 24 -3 14 -15 28 -27 31 -22 7 -43 -5 -21 -12 14 -5 17 -33 3 -33
-4 0 -25 -11 -45 -25 l-36 -24 -1 22 c0 12 -2 30 -4 40 -2 9 1 17 6 17 5 0 9
7 9 15 0 8 7 15 15 15 8 0 15 5 15 12 0 9 3 9 12 0 16 -16 28 -15 28 2 0 8 -9
17 -19 21 -11 3 -18 12 -15 20 3 7 1 16 -5 20 -7 4 -11 -5 -11 -24z"/>
<path d="M1253 689 c-13 -4 -23 -14 -23 -20 0 -8 5 -7 16 2 10 9 5 -9 -14 -47
-20 -39 -27 -65 -22 -74 7 -11 12 -11 23 -2 10 9 22 10 40 3 19 -8 28 -6 38 5
8 9 9 18 3 22 -5 4 -15 19 -23 34 -9 18 -19 25 -30 21 -11 -4 -8 3 8 21 28 30
19 49 -16 35z"/>
<path d="M849 647 c-21 -16 -9 -50 25 -72 13 -9 27 -28 31 -42 5 -20 9 -23 18
-14 9 9 9 14 -1 20 -7 4 -11 14 -9 22 2 8 2 11 0 7 -6 -10 -58 39 -58 55 0 6
6 17 15 24 20 16 0 16 -21 0z"/>
<path d="M1703 647 c9 -8 17 -19 17 -26 0 -6 4 -11 9 -11 17 0 42 -70 37 -104
-7 -46 -17 -67 -27 -60 -5 3 -6 -2 -3 -10 7 -19 16 -20 32 -4 12 12 13 11 16
-24 1 -7 8 -19 16 -26 8 -8 9 -11 3 -7 -7 3 -13 2 -13 -3 0 -6 7 -12 15 -16 8
-3 15 -17 15 -31 0 -15 -4 -24 -10 -20 -5 3 -8 -7 -5 -25 2 -16 -1 -33 -6 -36
-6 -3 -8 -13 -5 -21 4 -11 2 -13 -9 -9 -10 4 -15 -1 -15 -15 0 -11 -8 -23 -17
-26 -10 -4 -21 -11 -25 -17 -4 -6 -16 -6 -33 2 -23 11 -27 10 -22 -2 6 -14
-19 -31 -37 -27 -6 1 -19 -2 -30 -7 -12 -6 -29 -13 -38 -16 -10 -3 -18 -10
-18 -16 0 -24 32 -19 106 16 44 20 96 39 117 42 30 4 37 9 37 27 0 12 11 52
25 88 l24 66 -35 97 c-49 135 -85 205 -114 222 -22 13 -23 13 -7 -1z"/>
<path d="M1165 630 c-10 -33 3 -85 27 -106 l21 -19 -17 26 c-10 17 -16 43 -15
68 3 46 -6 63 -16 31z"/>
<path d="M1430 644 c0 -5 9 -17 20 -27 21 -17 40 -15 40 4 0 6 -5 7 -11 4 -5
-4 -19 1 -30 11 -10 9 -19 13 -19 8z"/>
<path d="M1060 595 c0 -14 5 -25 10 -25 6 0 10 4 10 9 0 5 3 16 6 25 4 11 1
16 -10 16 -10 0 -16 -9 -16 -25z"/>
<path d="M1485 570 c-4 -6 -11 -8 -16 -5 -5 4 -9 0 -9 -8 0 -25 25 -26 37 -1
11 23 1 35 -12 14z"/>
<path d="M1026 527 c6 -45 27 -54 36 -14 7 36 7 36 -19 41 -17 4 -20 0 -17
-27z"/>
<path d="M1134 527 c1 -10 17 -27 36 -38 21 -13 29 -23 22 -28 -6 -4 7 -8 29
-8 23 -1 47 -7 55 -14 15 -13 49 -4 39 10 -3 5 -1 12 5 16 5 3 10 11 10 16 0
6 -12 1 -27 -11 -18 -14 -30 -17 -37 -10 -5 5 -20 10 -33 10 -13 0 -26 7 -29
15 -3 8 -16 17 -27 21 -12 4 -27 14 -34 23 -11 14 -11 14 -9 -2z"/>
<path d="M933 507 c-9 -14 30 -49 76 -69 49 -21 62 -18 36 9 -18 17 -37 24
-66 24 -12 0 -15 6 -11 21 3 14 7 16 12 7 8 -12 40 -6 40 8 0 11 -80 10 -87 0z"/>
<path d="M1360 479 c0 -5 -13 -24 -30 -42 -39 -42 -30 -47 14 -6 35 31 47 59
26 59 -5 0 -10 -5 -10 -11z"/>
<path d="M35 430 l-40 -5 45 -7 c25 -4 54 -10 65 -14 13 -5 16 -4 11 4 -13 21
-40 28 -81 22z"/>
<path d="M635 423 c-84 -11 -315 -79 -315 -92 0 -10 123 8 130 19 3 4 16 10
30 13 14 3 43 11 65 16 22 6 67 16 99 22 41 8 55 14 45 20 -8 5 -16 8 -19 7
-3 0 -18 -3 -35 -5z"/>
<path d="M710 410 c0 -5 11 -11 25 -11 14 -1 30 -2 37 -3 6 -1 13 5 16 12 2 8
-9 12 -37 12 -23 0 -41 -4 -41 -10z"/>
<path d="M1296 365 c-3 -9 -2 -14 3 -11 5 3 11 -1 15 -9 3 -8 1 -15 -5 -15 -6
0 -3 -7 6 -16 9 -9 19 -13 23 -10 3 4 2 10 -3 14 -6 4 -12 16 -13 27 -5 29
-18 39 -26 20z"/>
<path d="M711 308 c-14 -18 -30 -37 -37 -41 -11 -6 -11 -13 -2 -35 7 -15 16
-31 21 -37 7 -7 7 -6 3 3 -5 7 -1 12 11 13 10 0 13 3 6 6 -19 7 -16 33 8 72
27 45 20 60 -10 19z"/>
<path d="M1350 281 c0 -10 7 -21 15 -25 9 -3 12 -12 8 -23 -3 -10 -3 -15 2
-11 4 4 14 3 22 -3 24 -20 14 7 -12 31 -28 27 -34 50 -7 29 15 -13 16 -12 3 4
-18 22 -31 22 -31 -2z"/>
<path d="M541 234 c-1 -6 -28 -29 -62 -51 -35 -24 -56 -43 -50 -47 6 -4 11 -3
11 2 0 5 17 17 37 28 47 24 76 52 69 67 -3 8 -5 8 -5 1z"/>
<path d="M1185 189 c26 -10 107 -11 122 -1 6 4 -23 8 -65 8 -45 1 -68 -2 -57
-7z"/>
<path d="M395 119 c-4 -5 -12 -8 -18 -6 -10 3 -40 -19 -83 -61 -14 -14 -19
-42 -8 -42 3 0 14 10 24 23 11 13 39 34 64 48 25 13 46 30 46 36 0 16 -16 17
-25 2z"/>
<path d="M1950 35 c0 -31 3 -35 25 -35 14 0 25 5 25 11 0 5 -5 7 -11 3 -7 -4
-10 -1 -7 6 7 23 28 23 28 1 0 -27 17 -27 25 -1 8 26 35 26 35 0 0 -26 16 -26
30 0 14 27 40 26 41 -2 l0 -23 9 23 c12 28 46 29 62 2 16 -25 50 -28 41 -3 -5
14 -3 15 7 6 7 -6 19 -9 28 -6 10 4 13 2 8 -5 -5 -8 1 -12 18 -12 19 0 26 5
26 20 0 25 45 28 58 4 8 -15 10 -15 15 0 8 21 43 21 55 0 8 -15 10 -15 15 0 4
9 16 16 27 16 11 0 20 7 20 15 0 13 -39 15 -290 15 l-290 0 0 -35z"/>
<path d="M1700 20 c0 -5 4 -10 9 -10 5 0 15 -2 23 -5 7 -3 22 1 33 9 19 14 17
15 -22 16 -24 0 -43 -4 -43 -10z"/>
</g>
</svg>
