<?xml version="1.0" standalone="no"?>
<!DOCTYPE svg PUBLIC "-//W3C//DTD SVG 20010904//EN"
 "http://www.w3.org/TR/2001/REC-SVG-20010904/DTD/svg10.dtd">
<svg version="1.0" xmlns="http://www.w3.org/2000/svg"
 width="179.000000pt" height="154.000000pt" viewBox="0 0 179.000000 154.000000"
 preserveAspectRatio="xMidYMid meet">
<metadata>
Created by potrace 1.10, written by Peter Selinger 2001-2011
</metadata>
<g transform="translate(0.000000,154.000000) scale(0.100000,-0.100000)"
fill="#000000" stroke="none">
<path d="M264 1488 c3 -29 12 -104 18 -167 l13 -114 170 7 c93 3 232 9 308 13
121 5 137 4 132 -9 -5 -13 7 -17 67 -22 40 -4 83 -7 95 -7 13 -1 20 -5 17 -10
-3 -5 0 -9 5 -9 14 0 14 10 -1 41 -11 23 -16 25 -90 24 -45 0 -78 4 -78 10 0
6 31 10 73 10 l73 0 -2 40 c-2 22 -6 52 -10 67 -4 20 -1 29 14 37 11 6 22 24
25 41 5 21 15 34 39 44 l33 13 -50 7 c-27 4 -59 10 -70 12 -11 2 -5 -3 13 -13
34 -18 42 -33 16 -33 -8 0 -12 -4 -9 -10 3 -5 1 -10 -5 -10 -7 0 -10 -7 -6
-15 3 -8 1 -15 -4 -15 -5 0 -10 -10 -12 -22 -2 -12 -14 -28 -28 -35 l-25 -13
27 0 c15 0 29 -4 33 -9 6 -11 -32 -19 -110 -24 -43 -3 -40 -4 17 -5 58 -2 90
-13 76 -28 -5 -4 -97 -17 -135 -18 -11 -1 -19 -4 -16 -8 2 -5 0 -8 -6 -8 -5 0
-12 4 -15 8 -3 5 -22 8 -43 6 -48 -3 -340 -16 -412 -18 -31 -1 -59 4 -66 10
-6 7 -17 68 -24 136 -15 146 -16 148 -37 148 -14 0 -16 -8 -10 -52z"/>
<path d="M324 1463 c9 -103 17 -145 30 -159 23 -23 56 -34 88 -29 18 2 83 7
143 10 177 9 229 15 240 27 7 7 -49 9 -200 4 -116 -4 -219 -8 -230 -9 -18 -2
-21 6 -27 73 -13 137 -18 160 -35 160 -13 0 -15 -11 -9 -77z"/>
<path d="M727 1530 c23 -5 52 -14 64 -20 16 -9 24 -9 33 1 8 9 8 10 0 6 -7 -4
-14 0 -18 8 -4 11 -20 15 -63 14 l-58 -1 42 -8z"/>
<path d="M1180 1527 c0 -9 -3 -22 -6 -30 -4 -12 10 -16 78 -19 80 -3 85 -2
133 29 49 33 49 33 18 33 -22 0 -32 -5 -36 -20 -3 -11 -12 -20 -20 -20 -8 0
-17 9 -20 20 -4 16 -13 20 -44 19 -24 -1 -30 -3 -15 -6 32 -6 22 -28 -14 -28
-19 0 -29 5 -29 15 0 8 -10 16 -22 18 -15 2 -23 -2 -23 -11z"/>
<path d="M1710 1521 c15 -29 12 -40 -13 -52 -13 -6 -31 -23 -40 -37 -43 -72
-91 -102 -113 -73 -10 12 -19 11 -68 -9 -64 -26 -82 -43 -36 -34 23 5 30 3 28
-6 -2 -8 9 -20 25 -27 31 -16 37 -37 7 -28 -12 4 -28 1 -36 -6 -28 -23 7 -29
169 -28 147 1 157 3 157 20 0 17 -8 19 -69 19 l-69 0 5 68 c4 55 9 72 31 95
14 15 36 27 48 27 25 0 54 24 54 45 0 8 -7 11 -19 8 -13 -3 -24 2 -33 16 -17
28 -43 29 -28 2z m-70 -201 c0 -66 -6 -73 -73 -83 -32 -5 -38 -3 -36 11 3 34
-2 42 -26 42 -34 0 -35 37 -1 46 27 6 46 -1 46 -17 0 -6 -4 -7 -10 -4 -5 3
-10 1 -10 -4 0 -6 5 -11 10 -11 6 0 10 -9 10 -20 0 -11 6 -20 13 -20 9 0 12
11 9 34 -2 19 1 37 8 41 15 10 33 -16 20 -29 -13 -13 -13 -46 -1 -46 13 0 21
26 21 69 0 33 6 51 17 51 2 0 3 -27 3 -60z"/>
<path d="M586 1491 c-7 -11 18 -33 27 -24 4 3 7 12 7 20 0 15 -26 18 -34 4z"/>
<path d="M483 1474 c-7 -19 2 -28 22 -21 19 8 19 23 0 31 -9 3 -18 -1 -22 -10z"/>
<path d="M809 1483 c-19 -5 -45 -56 -31 -61 25 -8 42 -30 44 -54 2 -19 8 -28
19 -28 16 0 16 3 2 40 -9 22 -19 40 -22 40 -11 0 -11 43 1 57 6 7 9 12 7 12
-2 -1 -11 -3 -20 -6z"/>
<path d="M1217 1446 c-4 -10 -7 -26 -7 -37 0 -11 -6 -22 -14 -25 -17 -6 -61
-121 -57 -150 1 -12 -5 -29 -14 -37 -9 -10 -11 -18 -5 -22 16 -10 12 -25 -7
-25 -13 0 -15 2 -5 8 8 6 2 9 -18 9 l-30 0 22 -24 c12 -12 27 -23 35 -23 24 0
43 -44 39 -93 -2 -26 -1 -47 4 -47 12 0 9 -50 -4 -51 -6 0 -1 -4 12 -10 15 -5
21 -13 16 -21 -4 -7 -3 -10 1 -5 5 4 17 -1 27 -10 18 -16 18 -16 12 0 -3 9
-10 17 -15 17 -5 0 -9 11 -9 24 0 13 -7 42 -15 65 -8 22 -10 41 -5 41 6 0 10
-8 10 -19 0 -17 52 -51 78 -51 5 0 15 -7 22 -15 15 -18 -1 -20 -19 -2 -11 9
-12 9 -7 0 4 -7 16 -18 28 -24 15 -8 19 -8 14 0 -4 7 1 11 14 11 30 0 44 -42
19 -54 -23 -11 -24 -20 -4 -36 20 -17 20 -51 0 -44 -11 5 -13 2 -9 -10 4 -11
-1 -24 -13 -35 -19 -18 -20 -18 -32 13 -9 21 -15 26 -18 17 -3 -8 -1 -17 6
-19 16 -5 14 -25 -5 -48 -15 -18 -15 -18 -10 11 6 27 5 28 -7 13 -8 -10 -17
-14 -21 -11 -4 4 -3 -4 3 -19 13 -33 1 -46 -15 -16 -12 22 -13 22 -12 -9 1
-17 -6 -39 -16 -48 -21 -21 -12 -88 12 -91 4 0 15 -4 24 -8 16 -7 16 -9 2 -23
-13 -13 -13 -17 -2 -24 11 -7 11 -9 -1 -9 -8 0 -11 -6 -7 -16 4 -12 2 -15 -9
-10 -8 3 -15 1 -15 -4 0 -6 6 -10 14 -10 8 0 14 -11 14 -27 0 -22 -2 -23 -10
-9 -9 16 -12 16 -37 -7 -14 -14 -44 -31 -66 -38 -54 -18 -66 -29 -19 -19 21 5
42 6 47 3 6 -3 7 -2 4 4 -5 8 51 36 75 38 3 0 9 3 13 7 4 4 13 4 20 2 9 -4 11
7 7 44 -4 44 -1 52 27 81 16 17 39 31 50 31 29 0 35 17 8 24 l-22 6 21 18 c11
9 34 35 50 56 l29 40 -34 -20 c-18 -10 -59 -43 -90 -72 -57 -53 -81 -60 -81
-21 0 27 31 71 100 139 81 81 131 144 98 124 -19 -12 3 19 28 38 29 24 37 68
16 92 -13 14 -14 20 -4 23 6 3 12 9 12 15 0 6 -6 6 -15 -2 -12 -10 -15 -10
-15 4 0 12 -7 14 -32 9 -18 -3 -44 -11 -58 -16 -40 -17 -71 -17 -101 -2 -33
18 -42 42 -33 91 5 26 3 35 -4 30 -14 -9 -55 12 -47 24 3 5 1 11 -5 15 -16 10
-12 35 5 29 10 -4 15 0 15 11 0 9 -4 13 -10 10 -5 -3 -10 -2 -10 3 0 5 11 12
25 14 17 4 25 1 25 -8 0 -8 -5 -14 -11 -14 -6 0 -8 -9 -4 -21 5 -14 2 -25 -6
-30 -22 -14 8 -28 40 -20 33 9 74 68 66 96 -3 11 -8 42 -12 68 -7 60 -23 72
-23 17 0 -33 -4 -43 -20 -47 -11 -3 -20 -9 -20 -14 0 -4 -13 -3 -30 2 -29 11
-29 12 -15 39 8 16 15 36 15 45 0 8 7 15 15 15 8 0 15 4 15 9 0 14 39 24 53
13 19 -15 65 -23 72 -13 7 13 -23 29 -44 25 -20 -5 -43 14 -57 45 -9 22 -11
23 -17 7z m48 -206 c14 -44 -18 -54 -34 -10 -9 26 -8 30 9 30 10 0 21 -9 25
-20z m173 -268 c17 -36 16 -40 -14 -34 -24 4 -25 3 -13 -15 17 -28 5 -55 -23
-51 -18 2 -22 -1 -20 -16 3 -18 2 -18 -13 -6 -15 13 -15 14 0 23 12 6 15 16
11 33 -4 14 -2 24 4 24 13 0 -21 49 -34 50 -5 0 -1 -9 9 -20 10 -11 15 -23 12
-26 -10 -10 -37 16 -37 36 0 20 15 26 70 28 29 0 37 -4 48 -26z"/>
<path d="M1165 1410 c-4 -6 -10 -8 -14 -6 -4 3 -7 -11 -7 -30 1 -30 3 -32 14
-17 6 9 12 22 12 29 0 7 8 18 18 23 16 10 16 10 0 11 -9 0 -20 -5 -23 -10z"/>
<path d="M1443 1387 c-24 -11 -43 -25 -43 -30 0 -5 6 -5 13 1 7 6 33 20 57 31
25 11 38 20 30 20 -8 0 -34 -10 -57 -22z"/>
<path d="M1080 1351 c0 -11 9 -25 21 -31 19 -11 20 -9 17 17 -4 34 -38 46 -38
14z"/>
<path d="M1280 1350 c0 -5 4 -10 10 -10 5 0 12 -11 16 -25 7 -28 19 -33 27
-11 3 7 -7 23 -24 35 -16 12 -29 17 -29 11z"/>
<path d="M1364 1295 c-17 -8 -36 -21 -43 -29 -12 -14 -9 -16 23 -16 48 0 49 1
52 33 1 15 1 27 0 26 0 0 -15 -7 -32 -14z"/>
<path d="M1298 1206 c-4 -19 -1 -22 14 -18 10 2 34 1 53 -2 25 -5 35 -12 35
-26 0 -24 -17 -35 -55 -33 l-30 2 33 -10 c21 -6 38 -6 51 1 11 5 28 10 38 10
15 0 20 8 21 39 3 42 -11 60 -31 42 -9 -7 -29 -6 -68 4 -29 8 -55 15 -55 15
-1 0 -4 -11 -6 -24z"/>
<path d="M1500 1183 c0 -7 5 -13 11 -13 6 0 9 -7 5 -15 -3 -8 -1 -15 4 -15 6
0 10 9 10 20 0 28 20 25 21 -2 0 -22 1 -22 9 -3 16 37 11 44 -25 43 -22 -1
-35 -6 -35 -15z"/>
<path d="M790 1170 c-12 -8 -10 -15 16 -42 34 -36 59 -82 69 -128 4 -17 11
-27 17 -24 6 4 7 19 3 38 -4 17 -8 41 -10 53 -2 17 -70 114 -79 113 0 0 -8 -5
-16 -10z"/>
<path d="M1260 1135 c0 -20 5 -25 25 -25 30 0 32 11 7 33 -25 23 -32 21 -32
-8z"/>
<path d="M514 1137 c-3 -10 -4 -31 0 -47 5 -27 3 -30 -19 -30 -24 0 -24 -1
-19 -67 l5 -68 -15 40 c-9 22 -16 41 -16 43 0 1 -8 2 -17 2 -15 0 -16 -2 -3
-10 10 -6 15 -26 15 -65 0 -30 2 -55 5 -55 3 0 16 16 28 35 18 26 22 41 17 64
-8 38 6 45 62 33 34 -8 42 -6 51 9 7 10 12 26 12 35 0 13 -4 11 -18 -6 -14
-18 -25 -21 -45 -16 -25 6 -26 10 -22 49 4 48 -9 84 -21 54z"/>
<path d="M732 1081 c-2 -56 1 -72 17 -92 11 -13 20 -19 21 -13 0 6 -7 17 -15
24 -8 7 -15 19 -15 27 0 27 24 7 51 -42 39 -70 58 -69 47 4 -5 31 -16 63 -25
71 -14 14 -14 13 -4 -7 11 -22 16 -81 5 -71 -3 4 -11 28 -18 55 -8 29 -18 47
-26 45 -9 -2 -11 6 -7 27 5 25 -5 42 -26 41 -1 0 -3 -31 -5 -69z"/>
<path d="M1779 1033 c-1 -5 -1 -12 1 -18 1 -5 -4 -4 -11 3 -7 6 -18 12 -23 12
-6 0 -5 -4 2 -8 10 -7 8 -15 -8 -35 -12 -15 -26 -27 -32 -27 -6 0 -27 -19 -47
-42 -49 -56 -64 -78 -54 -78 5 0 26 23 48 50 29 36 47 50 65 50 58 0 68 9 68
56 0 24 -2 44 -4 44 -2 0 -5 -3 -5 -7z"/>
<path d="M396 982 c-6 -10 -19 -12 -43 -7 -30 5 -38 2 -68 -28 -47 -47 -45
-77 10 -181 25 -47 45 -92 45 -100 0 -8 -17 -20 -37 -26 -21 -7 -52 -23 -70
-36 -17 -13 -34 -24 -38 -24 -3 0 -27 -21 -52 -46 -26 -25 -57 -53 -69 -63
-12 -10 -35 -33 -51 -52 -27 -33 -27 -33 -3 -16 14 10 33 21 44 24 10 3 39 17
63 30 24 12 51 23 59 23 8 0 24 16 35 35 12 19 31 38 44 41 12 3 27 15 33 27
18 40 70 98 75 85 2 -7 8 -10 12 -6 4 4 3 14 -4 22 -11 13 -21 55 -24 99 -1
17 -2 17 -14 1 -7 -10 -13 -13 -13 -7 0 7 -8 14 -17 16 -14 4 -12 5 5 6 12 0
22 6 22 12 0 5 5 7 11 4 6 -4 5 2 -2 13 -7 12 -17 18 -21 16 -4 -3 -9 1 -9 8
-1 7 -3 24 -5 38 -1 14 -1 32 2 41 6 21 44 32 61 17 18 -14 36 3 31 28 -3 15
-5 16 -12 6z"/>
<path d="M998 943 c-9 -10 -19 -29 -22 -43 -7 -24 -6 -24 16 4 19 25 32 56 24
56 -2 0 -10 -8 -18 -17z"/>
<path d="M1232 940 c1 -14 10 -36 20 -49 l18 -24 0 24 c0 13 -9 35 -20 49
l-19 25 1 -25z"/>
<path d="M1006 891 c-20 -32 -51 -72 -70 -89 -19 -17 -32 -33 -29 -36 3 -3
-11 -13 -31 -23 -20 -9 -35 -22 -32 -29 3 -7 -2 -15 -11 -18 -22 -9 -28 1 -13
19 8 10 9 15 2 15 -6 0 -16 -9 -22 -20 -6 -11 -16 -20 -23 -20 -8 0 -7 4 3 11
13 9 13 10 0 6 -8 -2 -17 -12 -19 -22 -3 -16 2 -17 40 -11 39 5 42 4 26 -8
-19 -15 -93 -30 -107 -21 -4 3 -19 0 -32 -5 -22 -10 -22 -10 5 -7 29 5 34 -2
15 -21 -9 -9 -9 -12 -1 -12 7 0 15 5 18 10 4 6 10 8 15 5 4 -3 13 2 20 10 7 8
20 15 29 15 9 1 34 9 56 20 22 11 45 19 51 20 6 0 19 9 28 19 10 11 23 18 29
15 16 -5 43 13 34 23 -5 4 -12 2 -16 -6 -7 -10 -9 -10 -14 2 -3 7 -1 20 4 28
5 8 9 19 8 24 0 6 -6 -1 -13 -15 -8 -14 -12 -28 -10 -32 3 -5 2 -8 -3 -9 -4 0
-16 -2 -25 -4 -10 -2 -18 0 -18 4 0 11 64 71 76 71 6 0 24 34 41 75 18 41 30
75 29 75 -2 0 -20 -27 -40 -59z"/>
<path d="M1082 897 c-19 -13 -32 -31 -32 -44 0 -12 -4 -24 -9 -27 -5 -3 -14
-19 -19 -36 l-11 -30 25 16 c13 9 24 21 24 28 0 6 -4 4 -10 -4 -5 -8 -11 -12
-15 -9 -3 3 4 17 15 32 11 14 20 28 20 32 0 3 12 17 28 30 36 31 24 40 -16 12z"/>
<path d="M1560 847 c-14 -12 -43 -37 -65 -54 -22 -18 -34 -33 -26 -33 7 0 38
25 69 55 57 54 70 75 22 32z"/>
<path d="M1571 806 c-12 -14 -11 -20 7 -39 12 -12 55 -58 96 -101 42 -44 75
-81 73 -82 -1 -2 -43 12 -92 30 -50 19 -101 37 -115 41 -22 6 -23 6 -10 -8 8
-8 38 -22 65 -31 28 -8 82 -26 120 -40 39 -14 71 -26 72 -26 1 0 1 14 0 31 -2
24 -24 54 -102 136 -90 96 -101 104 -114 89z"/>
<path d="M1076 782 c-8 -14 0 -67 10 -63 5 1 7 8 5 15 -1 6 -4 21 -5 33 -1 25
-2 27 -10 15z"/>
<path d="M648 753 c9 -4 6 -11 -9 -24 -31 -27 -10 -24 24 4 l28 22 -28 1 c-15
1 -22 -1 -15 -3z"/>
<path d="M1433 735 c1 -11 -3 -19 -10 -18 -8 2 -10 -4 -6 -14 5 -14 10 -12 29
13 13 15 21 31 18 33 -3 3 -9 -1 -13 -8 -7 -11 -10 -11 -14 0 -4 8 -5 5 -4 -6z"/>
<path d="M963 702 c-27 -3 -30 -6 -20 -17 8 -8 18 -10 29 -4 13 7 15 5 11 -11
-4 -15 0 -20 14 -20 23 0 81 -49 84 -70 6 -58 -33 -110 -82 -110 -15 0 -30 -4
-33 -8 -3 -5 -23 -7 -44 -6 -34 2 -39 -1 -35 -17 4 -13 -2 -22 -18 -28 -23 -9
-22 -12 1 -15 6 0 15 -8 21 -16 8 -12 9 -10 4 8 -5 18 -2 22 14 22 12 0 21 3
21 8 0 7 47 32 62 32 4 0 8 -4 8 -10 0 -5 -5 -10 -11 -10 -10 0 -39 -24 -39
-33 0 -2 7 -4 15 -4 8 0 12 3 10 7 -3 4 11 16 30 26 19 10 35 23 35 27 0 5 9
7 20 4 11 -3 18 -1 14 4 -3 5 0 9 7 9 7 0 9 3 6 7 -9 8 13 34 23 28 4 -3 4 12
-1 32 -5 26 -4 40 4 45 9 6 9 10 1 16 -6 4 -16 17 -23 30 -6 12 -21 22 -31 22
-24 0 -25 6 -5 26 13 14 16 13 25 -10 5 -14 15 -26 21 -26 8 0 8 4 -1 15 -7 8
-9 15 -4 15 5 1 -2 10 -15 20 l-23 20 -24 -27 c-13 -16 -24 -26 -25 -23 -4 24
-8 42 -11 44 -2 0 -18 0 -35 -2z"/>
<path d="M1445 623 c-16 -27 -28 -52 -27 -56 1 -4 -3 -17 -9 -28 -7 -15 -14
-18 -21 -11 -7 7 -23 -2 -49 -28 -43 -43 -43 -43 -28 -72 8 -15 8 -19 0 -14
-6 4 -15 -4 -21 -19 -14 -37 -12 -48 6 -41 8 3 12 2 9 -3 -3 -5 -1 -12 5 -16
6 -4 8 -10 5 -15 -3 -4 4 -6 15 -3 23 6 24 8 10 34 -6 10 -17 19 -25 19 -8 0
-15 4 -15 10 0 6 9 6 24 0 20 -7 25 -5 30 13 9 33 7 37 -10 30 -12 -4 -14 0
-9 23 11 49 14 55 26 49 6 -4 8 -14 4 -22 -8 -22 4 -53 18 -48 18 7 45 -13 31
-22 -6 -5 -14 -23 -17 -42 -9 -43 21 -144 40 -137 8 3 13 -2 13 -14 0 -17 -5
-18 -49 -13 -54 6 -69 -5 -43 -33 42 -47 73 -105 66 -126 -6 -20 -7 -20 -19
-4 -7 9 -19 15 -26 14 -10 -2 -13 5 -11 22 2 18 0 21 -7 11 -5 -8 -16 -11 -25
-8 -21 8 -20 -2 2 -19 16 -13 16 -14 -3 -7 -22 8 -54 42 -55 58 0 6 4 4 9 -3
7 -11 9 -11 14 1 3 8 -1 24 -9 35 -9 13 -11 23 -4 27 5 3 10 -1 10 -10 0 -11
5 -15 15 -11 8 3 21 -2 30 -10 11 -12 15 -12 15 -2 0 18 -12 33 -32 41 -10 3
-18 14 -18 24 0 15 -2 16 -10 3 -7 -12 -13 -11 -36 10 -24 22 -26 23 -21 5 3
-11 9 -46 13 -78 5 -46 11 -61 28 -68 19 -9 18 -9 -4 -3 -76 18 -62 10 40 -25
126 -43 155 -50 124 -26 -18 13 -18 14 6 9 18 -4 21 -3 11 4 -8 6 -10 15 -6
22 5 9 4 11 -3 6 -16 -10 -15 6 2 39 15 29 11 59 -7 48 -7 -4 -8 0 -4 11 4 10
7 20 7 23 0 3 6 0 14 -6 8 -6 20 -10 27 -9 7 2 12 -8 13 -27 0 -33 28 -71 45
-60 7 4 11 -7 12 -32 1 -37 1 -37 9 -9 10 33 -6 66 -32 66 -20 0 -35 39 -18
50 13 8 -16 25 -38 21 -7 -1 -12 4 -11 11 4 30 -2 49 -21 65 -11 10 -20 23
-20 29 0 7 -6 14 -12 17 -7 2 -10 7 -7 11 11 12 39 -6 39 -25 0 -10 5 -19 10
-19 15 0 12 15 -9 41 -18 24 -36 143 -19 133 4 -3 8 -10 8 -15 0 -11 25 -39
35 -39 3 0 3 5 0 10 -10 16 11 12 25 -5 10 -13 10 -19 -2 -33 -8 -9 -18 -24
-22 -32 -4 -8 2 -4 14 10 21 25 22 25 17 2 -3 -12 -1 -20 4 -16 5 3 9 13 9 23
0 9 5 22 12 29 9 9 16 6 29 -14 9 -14 19 -22 23 -16 3 5 -3 17 -14 27 -23 21
-26 45 -6 45 8 0 17 -12 20 -26 4 -15 9 -24 12 -21 12 12 -9 49 -33 58 -16 6
-23 14 -19 24 4 11 -2 15 -19 15 -14 0 -25 -4 -25 -8 0 -15 -37 -52 -44 -45
-9 10 -7 25 3 18 5 -3 12 -1 15 4 8 12 -25 45 -33 34 -10 -14 -38 -14 -44 0
-7 18 22 55 31 41 4 -7 15 -8 30 -3 23 9 29 24 12 34 -16 10 -12 35 5 29 8 -4
13 -9 10 -13 -10 -17 26 -50 54 -49 15 1 33 -2 40 -6 6 -4 11 -2 11 4 0 7 -9
14 -20 17 -11 3 -20 9 -20 12 0 4 -10 7 -22 7 -17 -1 -24 5 -26 22 -2 12 1 22
7 22 6 0 11 -10 11 -22 l0 -22 17 21 17 21 28 -19 c20 -15 26 -16 22 -6 -3 8
-14 17 -25 20 -10 3 -19 10 -19 17 0 14 38 4 62 -17 9 -8 19 -10 22 -5 3 5
-17 19 -44 30 -45 19 -51 19 -65 5 -12 -11 -19 -12 -29 -4 -11 9 -18 8 -29 -4
-20 -20 -27 -19 -27 4 0 15 6 19 30 17 17 -1 30 -1 30 0 0 12 -21 54 -27 54
-5 0 -21 -21 -38 -47z m95 -202 c0 -12 -29 -35 -36 -28 -11 10 5 37 21 37 8 0
15 -4 15 -9z m-106 -293 c8 -32 7 -38 -5 -38 -5 0 -7 5 -4 10 3 6 1 10 -4 10
-6 0 -11 9 -11 20 0 27 16 25 24 -2z"/>
<path d="M373 632 c3 -12 1 -20 -4 -16 -5 3 -9 0 -9 -5 0 -13 27 -15 34 -2 3
4 -2 17 -10 27 -15 18 -15 18 -11 -4z"/>
<path d="M920 625 c0 -8 -14 -17 -35 -21 -19 -3 -35 -8 -35 -11 0 -2 13 -18
30 -36 l30 -32 0 31 c0 18 8 38 20 49 24 22 26 35 5 35 -8 0 -15 -7 -15 -15z"/>
<path d="M958 604 c-20 -10 -28 -22 -28 -42 0 -41 15 -60 37 -45 10 6 16 17
14 25 -12 40 -12 58 -2 58 6 0 11 -5 11 -10 0 -6 11 -15 25 -20 25 -9 25 -11
11 -44 -13 -30 -13 -34 0 -29 19 7 34 36 34 67 0 18 -9 30 -30 41 -35 18 -38
18 -72 -1z"/>
<path d="M52 564 c-7 -8 -10 -19 -7 -24 3 -5 1 -19 -5 -30 -6 -11 -7 -20 -1
-20 5 0 14 14 20 30 7 22 16 30 35 30 33 0 57 10 50 21 -9 14 -78 10 -92 -7z"/>
<path d="M747 540 c-26 -29 -28 -63 -2 -54 7 3 30 -3 51 -12 79 -35 100 -21
34 22 -28 19 -40 34 -40 50 0 32 -11 30 -43 -6z"/>
<path d="M275 541 c-3 -6 -4 -15 -1 -19 3 -5 -1 -9 -9 -9 -8 0 -12 4 -9 9 3 4
0 8 -6 8 -7 0 -9 -7 -6 -16 3 -8 -1 -25 -9 -38 -15 -22 -14 -24 7 -30 22 -7
22 -7 3 -16 -19 -8 -19 -8 -1 -16 19 -7 19 -8 -1 -15 -16 -6 -19 -14 -16 -33
3 -15 -2 -37 -11 -51 -21 -33 -21 -35 13 -35 37 0 40 9 52 149 10 109 8 134
-6 112z"/>
<path d="M1605 504 c13 -21 13 -23 -8 -27 -19 -4 -18 -4 6 -6 29 -1 34 8 15
27 -17 17 0 28 22 14 16 -10 18 -9 14 3 -4 9 -17 14 -35 13 -27 -2 -28 -3 -14
-24z"/>
<path d="M505 493 c-39 -9 -53 -44 -27 -71 7 -8 10 -17 8 -21 -3 -4 1 -8 7 -8
9 0 12 10 9 29 -5 35 6 68 17 50 6 -10 10 -10 20 2 13 16 60 7 114 -21 39 -20
28 -27 -14 -9 -61 24 -89 28 -83 11 4 -8 12 -15 20 -15 8 0 11 -6 7 -17 -4
-11 -3 -14 5 -9 6 4 21 -3 33 -15 17 -17 23 -19 30 -8 5 8 4 15 -1 17 -6 2
-10 8 -10 14 0 15 60 -7 115 -41 17 -11 38 -20 48 -20 10 -1 16 -5 12 -10 -3
-5 0 -13 7 -17 7 -4 10 -4 6 1 -4 4 -3 16 2 26 7 12 6 20 -2 25 -7 4 -8 3 -4
-4 13 -22 -10 -12 -75 30 -107 69 -184 94 -244 81z"/>
<path d="M1564 448 c-3 -5 -4 -11 -3 -13 9 -7 109 -11 109 -3 0 4 -3 8 -7 8
-5 1 -27 5 -51 9 -25 5 -45 5 -48 -1z"/>
<path d="M174 390 c-22 -38 -28 -57 -20 -62 14 -10 32 -10 23 -1 -4 3 2 16 14
29 14 15 19 32 17 55 l-3 34 -31 -55z"/>
<path d="M435 408 c-9 -22 24 -90 47 -96 10 -2 18 -8 18 -12 0 -4 11 -12 25
-18 15 -7 25 -8 25 -2 0 6 -7 10 -16 10 -8 0 -12 5 -9 10 4 6 3 10 -2 9 -16
-4 -43 13 -43 28 0 8 -4 12 -9 8 -6 -3 -8 12 -5 37 3 28 1 38 -5 29 -7 -11 -9
-11 -14 0 -4 11 -6 10 -12 -3z"/>
<path d="M534 405 c-9 -23 5 -38 24 -23 9 7 13 8 10 3 -4 -6 -3 -17 3 -25 7
-13 9 -12 9 3 0 16 1 16 18 0 11 -10 17 -22 14 -27 -3 -5 0 -6 6 -2 6 3 22 2
36 -4 35 -13 33 3 -1 21 -16 8 -30 17 -33 20 -13 16 -50 28 -66 22 -13 -5 -16
-3 -11 10 3 9 4 17 1 17 -2 0 -7 -7 -10 -15z"/>
<path d="M79 360 c-32 -26 -5 -26 28 0 17 13 21 20 10 20 -8 0 -25 -9 -38 -20z"/>
<path d="M1015 349 c-4 -6 -14 -8 -22 -5 -8 4 -11 2 -7 -5 4 -7 0 -9 -12 -5
-11 3 -29 -3 -44 -14 l-25 -20 23 0 c14 0 27 -9 34 -25 6 -14 14 -25 18 -25 4
0 6 -12 4 -27 -2 -16 -1 -20 2 -10 8 24 23 12 17 -13 -9 -35 -37 -17 -46 30
-4 21 -4 20 -6 -7 -1 -23 5 -35 18 -43 26 -14 29 -13 41 10 12 23 -4 63 -39
94 -22 20 -28 46 -10 46 5 0 7 -4 4 -10 -13 -21 31 -8 54 15 13 14 18 25 13
25 -6 0 -14 -5 -17 -11z"/>
<path d="M1183 353 c4 -6 2 -24 -2 -41 -6 -21 -6 -32 2 -35 16 -6 21 69 6 79
-7 4 -9 3 -6 -3z"/>
<path d="M380 320 c-25 -17 -50 -30 -55 -30 -20 0 -84 -61 -129 -123 -26 -34
-46 -65 -47 -69 0 -4 -6 -28 -13 -53 -13 -42 -13 -45 5 -45 10 0 19 5 19 11 0
5 4 8 9 5 4 -3 6 6 3 19 -2 14 2 33 9 42 10 12 10 14 2 9 -18 -10 -16 2 2 21
8 8 13 19 10 24 -4 5 1 6 10 3 11 -4 14 -2 9 9 -3 9 4 25 15 36 12 12 21 26
21 32 0 5 4 8 9 4 5 -3 12 -1 16 5 4 6 11 7 17 4 7 -4 8 -2 4 4 -4 7 -1 12 7
12 7 0 24 10 37 22 13 13 35 24 49 26 14 2 29 9 33 15 6 9 11 8 18 -3 14 -22
12 1 -3 27 l-12 23 -45 -30z"/>
<path d="M1153 333 c-3 -10 -15 -38 -25 -63 l-19 -45 6 40 5 40 -20 -23 c-15
-18 -17 -28 -10 -42 6 -10 8 -25 7 -32 -2 -7 -2 -10 0 -5 3 4 15 7 27 7 31 0
39 11 18 26 -16 12 -16 14 0 26 9 7 20 30 23 51 7 38 -1 51 -12 20z"/>
<path d="M1243 340 c2 -8 -2 -23 -11 -33 -21 -24 -12 -29 15 -9 20 16 21 19 6
37 -9 11 -13 14 -10 5z"/>
<path d="M36 294 c-20 -14 -36 -31 -36 -39 0 -22 13 -18 44 14 29 30 59 32 49
3 -3 -9 -20 -29 -37 -44 -24 -22 -27 -28 -13 -28 23 0 67 44 67 67 0 10 -9 26
-19 35 -18 15 -21 15 -55 -8z"/>
<path d="M1060 305 c0 -8 -5 -15 -11 -15 -5 0 -7 -5 -3 -12 4 -7 3 -8 -4 -4
-6 4 -9 13 -5 21 3 8 0 15 -6 15 -7 0 -14 -7 -17 -15 -4 -8 -11 -12 -18 -8 -6
3 3 -7 19 -23 l30 -29 18 35 c20 39 21 50 7 50 -5 0 -10 -7 -10 -15z"/>
<path d="M773 265 c27 -15 51 -24 54 -21 6 6 -42 31 -77 40 -14 4 -3 -5 23
-19z"/>
<path d="M130 252 c0 -13 -4 -21 -8 -18 -4 2 -3 -21 3 -52 8 -44 11 -50 13
-28 3 22 6 26 13 15 7 -11 9 -9 9 9 0 16 10 27 33 38 l32 15 -43 -6 c-28 -3
-41 -2 -37 5 3 5 1 18 -4 27 -9 16 -10 15 -11 -5z"/>
<path d="M1067 243 c-4 -6 -4 -18 -1 -27 3 -9 2 -16 -3 -16 -6 0 -10 -14 -9
-30 1 -26 8 -34 44 -51 24 -12 45 -19 48 -16 3 3 -10 11 -30 18 -34 12 -35 14
-38 73 -2 34 -6 56 -11 49z"/>
<path d="M700 222 c0 -4 9 -8 20 -9 11 -1 34 -9 50 -17 17 -8 28 -10 24 -5 -6
10 -70 39 -85 39 -5 0 -9 -4 -9 -8z"/>
<path d="M1160 192 c-11 -35 -11 -48 -2 -63 7 -11 10 -24 7 -28 -3 -5 5 -7 17
-4 19 4 21 3 8 -7 -13 -10 -12 -11 3 -6 10 3 22 6 25 6 4 0 7 14 8 31 1 28 -1
30 -30 27 -21 -2 -32 2 -33 12 -4 20 17 49 23 34 7 -16 44 -5 44 13 0 11 -7
13 -24 9 -15 -4 -26 -1 -29 7 -2 6 -10 -8 -17 -31z"/>
<path d="M56 194 c-28 -11 -41 -11 -46 -3 -4 6 -7 -3 -6 -19 l1 -30 45 26 c77
43 79 52 6 26z"/>
<path d="M1090 161 c0 -8 3 -11 7 -8 3 4 12 2 18 -3 9 -8 14 -5 18 9 3 15 0
18 -19 17 -13 0 -24 -7 -24 -15z"/>
<path d="M1095 90 c-4 -6 2 -10 12 -10 10 0 34 -8 53 -19 19 -10 52 -24 73
-30 20 -7 37 -17 37 -22 0 -5 24 -9 53 -8 l52 1 -110 37 c-60 21 -122 43 -137
49 -17 7 -29 8 -33 2z"/>
<path d="M1482 45 c1 -19 3 -35 4 -35 14 0 33 14 28 21 -3 5 -10 7 -15 4 -5
-4 -9 -1 -9 6 0 6 8 9 20 6 24 -6 28 18 4 27 -29 11 -35 6 -32 -29z"/>
</g>
</svg>
